<svg width="413" height="207" xmlns="http://www.w3.org/2000/svg"><g fill="#000" fill-rule="nonzero"><path d="M88.477 107.817h-8.251c-7.334-.115-8.251.228-9.511 1.6-1.376 1.491-1.376 1.491.344 2.866.916.8 3.437 1.6 5.615 1.947 6.3.8 9.053 2.177 9.053 4.584 0 7.678-7.22 11.345-16.043 8.25-7.907-2.749-10.429-6.188-11.231-15.24-.344-4.469-.344-4.928 3.1-10.772a51.55 51.55 0 0 1 11.115-13.293c3.782 0 12.146-.114 14.438.115 3.208.344-3.782-5.844-7.334-6.417-6.646-1.031-11.918-.573-16.386 1.834-3.782 1.947-4.813 2.865-6.761 6.646-2.925 5.65-4.963 8.46-7.13 14.211-1.278 2.465-2.333 7.736-2.592 12.282.055 2.83.511 5.64 1.356 8.342 1.262 4.012 6.991 9.971 12.148 12.492 4.811 2.291 9.4 2.636 19.6 1.26 7.448-1.031 9.626-1.834 11.688-4.469 1.49-1.834 1.376-2.98 1.376-9.512 0-8.136-2.292-11.229-4.584-16.729M141.645 107.817h-8.252c-7.333-.115-8.25.228-9.511 1.6-1.374 1.491-1.374 1.491.345 2.866.916.8 3.437 1.6 5.614 1.947 6.3.8 9.054 2.177 9.054 4.584 0 7.678-7.22 11.345-16.044 8.25-7.907-2.749-10.428-6.188-11.23-15.24-.343-4.469-.343-4.928 3.094-10.772a51.572 51.572 0 0 1 11.116-13.293c3.781 0 12.147-.114 14.438.115 3.209.344-3.782-5.844-7.333-6.417-6.647-1.031-11.918-.573-16.386 1.834-3.782 1.947-4.814 2.865-6.763 6.646-3.322 6.417-5.5 9.167-8.021 16.73a27.263 27.263 0 0 0-.344 18.105c1.261 4.012 6.992 9.971 12.147 12.492 4.813 2.291 9.4 2.636 19.6 1.26 7.448-1.031 9.626-1.834 11.688-4.469 1.49-1.834 1.376-2.98 1.376-9.512 0-8.136-2.292-11.229-4.584-16.729M179.227 119.62c-3.552 4.01-10.2 7.447-12.145 6.187-1.491-.917-2.292-4.812-2.292-11.229 0-2.522-.575-9.741-1.261-16.159-1.375-12.375-1.261-13.177 2.292-14.552 2.521-1.031 8.021-.916 10.542.343 5.042 2.407 9.167 7.334 9.97 11.918 1.146 6.073-2.522 18.22-7.106 23.492m-11.344-44.577-6.3-.344-3.209 3.324c-6.533 6.416-6.646 12.834-1.375 36.555.8 3.667 1.719 8.709 2.062 11.115.574 4.813-.572 4.125 10.772 7.792 7.334 2.406 13.636-.115 19.94-8.136 5.958-7.563 8.02-13.637 7.447-22.918-1.031-15.814-12.833-26.7-29.335-27.388M217.384 90.558l-.229-4.355c-.687-4.7.8-7 1.718-10.542.509-1.965 4.813-7.449 7.792-7.907 3.554-.688 2.522-.573 6.647.688 5.844 1.719 7.219 7.792 4.011 13.979-1.6 3.1-2.636 3.9-6.418 5.731-4.583 2.177-7.677 2.634-13.521 2.406m68 21.842c-.8-.114-1.72 1.146-2.98 4.125-3.324 8.137-8.823 12.032-16.845 12.147-6.3 0-7.448-.687-14.324-9.282l-18.153-20.466 3.325-1.6c3.552-1.834 7.791-6.3 8.937-9.4 1.49-3.782 2.292-10.085 1.835-13.179-.8-4.813-6.189-10.084-14.1-12.834-8.593-2.98-13.75-4.7-18.1-.573-2.981 2.865-1.146-.687-3.095-1.261-1.489-.458-3.323 1.261-3.323 3.667 0 2.406-2.2 23.9-1.261 39.992a57.514 57.514 0 0 1-.8 7.793c-1.718 11.116-1.718 10.313 1.834 10.313.6.012 1.197.106 1.772.279a3.087 3.087 0 0 0 3.878-2.216c.807-3.344 2.005-8.146 2.716-10.21.584-1.622.93-3.32 1.03-5.041 0-2.292 2.406-4.355 3.9-3.323.574.343 2.981 2.52 5.616 4.927 17.074 15.928 32.247 31.239 40.153 31.239 6.074 0 9.512-1.375 12.834-5.387 4.126-4.812 5.845-8.822 6.074-14.438.114-3.9.114-5.041-.916-5.271"/><path d="M287.143 95.486c-.343.228-2.75.228-5.5.113-3.9-.228-4.928-.572-4.813-1.488.344-2.98 2.866-11.918 3.438-11.918 2.98 1.146 7.792 12.147 6.875 13.293m12.032 22.683c2.866.573 5.272-.458 5.272-2.406 0-4.7-9.053-22.575-11.688-30.137-1.948-5.615-8.251-12.949-7.1-16.5.573-1.031.343-1.833-.8-3.322-.916-1.032-1.6-1.605-1.6-1.261 0 .458-1.376 1.6-2.865 2.635a9.556 9.556 0 0 0-3.9 4.928c-1.833 5.156-4.354 10.2-6.761 15.584-2.406 5.5-6.645 11.573-9.051 16.386-1.491 2.981-2.752 10.315-1.835 11.116.326.637.484 1.347.459 2.063 0 1.26.687 1.6 2.521 1.834 1.948.228 2.75-.23 4.7-2.521 2.52-2.751 5.042-8.022 6.645-12.033 3.323-.344 14.094-1.834 15.7-1.719.114.114 1.146 2.178 2.176 4.47 3.324 7.333 5.5 10.313 8.136 10.885"/><path d="M340.825 92.438a10.179 10.179 0 0 1-1.49-3.323c-.688-2.407-1.259-3.208-5.156-4.7-6.073-2.407-12.949-3.438-18.908-.115-5.5 2.98-8.709 6.418-10.543 11-1.948 4.928 1.032 3.782 1.032 6.761 0 1.719 3.438 4.125 9.4 6.532 5.386 2.177 7.792 4.469 8.823 8.48.8 3.094.115 8.021-1.833 11.688-3.322 6.3-11 8.136-15.928 3.782a15.186 15.186 0 0 1-3.552-4.47c-1.032-2.635-4.354-4.125-6.3-2.979-1.49.8-1.261 4.584.457 8.021 1.491 2.751 10.428 10.542 13.98 12.033 6.3 2.636 16.387.229 21.086-4.928 6.3-6.99 8.938-16.96 6.416-25.325-1.833-6.073-8.135-12.261-13.521-13.292-2.75-.573-5.729-1.26-8.364-1.949v-4.812c0-4.584.228-4.928 2.176-5.73 5.959-2.407 14.9-1.49 17.417 1.6 1.49 1.947 5.617 4.01 5.617 2.864a1.553 1.553 0 0 0-.8-1.146M359.835 84.875c-.114-2.98-4.584-8.021-6.876-8.021-1.374 0-1.833.458-1.833 2.062 0 12.262.916 29.794 0 42.743-.344 4.7-.458 5.272 1.031 6.875a5.2 5.2 0 0 0 2.636 1.834c.917-.344 5.271 3.209 5.959 2.979.344-2.75-.8-12.375-.229-15.927 1.375-8.939-.345-23.95-.688-32.545M411.926 115.08c-2.177-3.094-4.812-3.78-11.459-3.208-5.614.573-11.918.916-17.532 1.375-.688-7.449-1.72-20.053-2.521-25.783-.689-4.813-1.719-21.085-3.323-24.866-1.261-2.98-2.98-2.521-4.7 1.031-1.375 2.865-1.489 4.354-1.26 15.011.114 6.532.343 17.991.457 25.326.116 11.343.344 13.75 1.606 16.5 1.146 2.407 1.6 2.98 2.406 2.407.687-.573 1.26-.573 2.177.229 1.031.8 1.49.8 3.208-.229 3.324-1.948 13.178-3.208 16.96-2.177 3.9 1.031 11.459.343 12.033-1.146.21-.607.74-1.048 1.374-1.146 1.833 0 2.063-1.375.573-3.324M55.587 66.069a2.175 2.175 0 0 0-.364-.505 1.857 1.857 0 0 0-.1-.233 3.127 3.127 0 0 0-.394-1.608.535.535 0 0 1-.007-.233 3.312 3.312 0 0 0-.11-1.383 3.865 3.865 0 0 0-.506-1.623 2.893 2.893 0 0 0-3.407-1.573 7.21 7.21 0 0 0-.293.1 2.19 2.19 0 0 0-1.144.949l-.51.873c-.048.08-.09.166-.122.254a14.878 14.878 0 0 0-1.229 2.476 3.666 3.666 0 0 1-.152.339l-1.221 2.438c-.356.721-.71 1.443-1.048 2.176-.173.25-.31.524-.411.811a4.73 4.73 0 0 0-.259.38c-.143.237-.277.479-.409.722l-1.12 1.9a7.677 7.677 0 0 1-.9 1.34 3.106 3.106 0 0 0-.521.737c-.156.276-.333.54-.529.79-.224.3-.446.609-.636.924l-.161.264a7.17 7.17 0 0 1-.291.465c-.166.23-.338.455-.512.681-.174.226-.354.466-.523.7-.141.194-.277.4-.413.6-.158.233-.311.467-.49.683-.444.55-.92 1.074-1.426 1.568-.19.15-.392.284-.605.4l-.547.334c-.38.249-.774.477-1.18.682l-.655.32a36.61 36.61 0 0 1-.8.388c-.88.43-1.82.728-2.786.887a2.936 2.936 0 0 0-.75.176c-.017.006-.049.008-.067.014-.085.006-.165.02-.252.023-.1.027-.208.041-.31.065-.102.024-.2.018-.316.025l-.154.011a17.493 17.493 0 0 1-3.177-.032 15.12 15.12 0 0 1-2.951-.648 12.615 12.615 0 0 1-1.974-.913 32.173 32.173 0 0 0-1.044-.539 9.542 9.542 0 0 1-.893-.479 22.625 22.625 0 0 1-2.941-2.08 9.517 9.517 0 0 1-1.414-1.464 37.032 37.032 0 0 0-1.508-1.938 33.559 33.559 0 0 1-2.019-2.691 20.14 20.14 0 0 1-.558-.863l-.262-.418a8.961 8.961 0 0 1-.538-.915c-.3-.619-.581-1.3-.9-2.146-.075-.2-.163-.4-.249-.591a3.24 3.24 0 0 1-.191-.484c-.021-.227-.05-.452-.08-.676a3.522 3.522 0 0 1-.058-.9 4.1 4.1 0 0 0 .01-1.206 2.576 2.576 0 0 0-.94-1.771 4.119 4.119 0 0 0-2.278-.986 5.288 5.288 0 0 0-.8.018l-.171.012a2.454 2.454 0 0 0-2.3 1.862l-.067.279c-.021.083-.035.166-.053.219a6.267 6.267 0 0 0-.521 2.526c0 .127-.019.251-.032.377-.015.155-.03.31-.041.457-.028.33-.014.662.04.988l.075.427c.11.625.222 1.25.373 1.868.041.167.073.337.1.505a7.8 7.8 0 0 0 .5 1.76c.045.093.081.19.107.29.144.742.385 1.461.716 2.14l.175.4c.137.352.314.688.527 1 .393.557.8 1.108 1.214 1.648.678.908 1.453 1.74 2.311 2.481l.25.218a5.665 5.665 0 0 0 1.609 1.1l.811.771c.517.493 1.033.987 1.558 1.467a46.48 46.48 0 0 0 1.9 1.628c.221.183.451.354.682.527.238.17.468.351.688.544.525.456 1.092.86 1.693 1.21.216.135.434.27.636.409.228.154.466.293.712.417.087.1.176.2.273.3.467.425.996.776 1.569 1.041.95.486 1.905.958 2.866 1.415.487.03.985.1 1.478.143.019.492.021.983.044 1.477.35 7.386.465 17.808.438 25.2-.132 3.68.45 7.35 1.715 10.807.636 1.6 1.4 3.156 2.023 4.763a9.928 9.928 0 0 0 1.83 3.207c.393.436.772.876 1.461.648.777-.257.822-.885.735-1.517-.092-.667-.236-1.327-.373-1.987-.236-1.139.193-2.078.941-3.375a14.462 14.462 0 0 1 1.483 4.686 3.057 3.057 0 0 0 .442-2.466c-.641-3.1-.346-6.214-.276-9.327-.077-.445.133-.89.524-1.116.143 1.448-.119 2.728.062 4.005.182 1.3.063 2.7 1.766 3.409.251-.586.34-1.228.259-1.86-.037-6.174.2-19.968-.2-26.143-.282-4.426-.3-6.775-.544-10.238.647-.14 1.28-.34 1.888-.6l.335-.152c.371-.179.75-.339 1.138-.479a17.582 17.582 0 0 0 3.7-1.91c.33-.206.648-.427.969-.649l.822-.547c.208-.128.414-.258.607-.394a4.6 4.6 0 0 0 .486-.4 5.792 5.792 0 0 0 1.27-1 9.088 9.088 0 0 0 1.713-2.163c.007-.009.09-.119.1-.13l.664-.924c.578-.8 1.154-1.6 1.768-2.469a5.24 5.24 0 0 0 .776-1.4c.097-.218.215-.425.352-.62l.1-.156c.47-.748.861-1.543 1.168-2.372l.081-.188.561-1.285c.1-.236.165-.486.191-.741a9.8 9.8 0 0 0 .061-.414 3.93 3.93 0 0 0 .258-2.042c.013-.026.025-.054.04-.081.419-.881.721-1.813.9-2.772l.063-.173c.142-.382.283-.766.433-1.148a2.422 2.422 0 0 0-.077-2.008M259.588 96.833h-.005.005M130.929 50.193c1.019-1.438 2.068-2.846 3.106-4.241l1.306-1.755a77.974 77.974 0 0 1 12.886-13.377c4.55-3.727 9.326-7.17 14.3-10.31l.674-.439a90.424 90.424 0 0 1 13.352-7.585A40.156 40.156 0 0 1 189.661 9.2a28.273 28.273 0 0 0 5.182-1.085 67.82 67.82 0 0 1 2.621-.679 100.084 100.084 0 0 1 22.718-2.322 56.967 56.967 0 0 1 10.244.332c2.311.148 4.626.291 6.889.5-.772-.139-1.544-.282-2.311-.415-2.342-.42-4.689-.848-7-1.386L211.995.397l5.077-.014c-.35-.025-.7-.055-1.052-.086-11.268-.986-21.109.466-30.1 4.434a10.59 10.59 0 0 0-1.531.921c-.467.31-.934.621-1.412.889-.874.481-1.709 1.038-2.548 1.594a22.657 22.657 0 0 1-5.852 3.085c-.655.2-1.326.36-2 .523a9.207 9.207 0 0 0-4.06 1.615 36.321 36.321 0 0 1-6.409 4.4c-.744.436-1.493.873-2.232 1.335l-.573.356c-.695.434-1.382.906-2.082 1.348a144.567 144.567 0 0 0-22.332 22.9 128.25 128.25 0 0 0-3.795 6.22 4.586 4.586 0 0 1-.165.272M293.663 165.759l-.1.116c.031-.04.067-.076.1-.116M122.057 131.5c-.389-1.73-.59-2.2-1.5-2.49l-.153-.049a5.214 5.214 0 0 0 2.138 4.313c-.2-.58-.363-1.173-.488-1.774M314.999 72.469c-.024-.479-.033-.96-.088-1.434a3.99 3.99 0 0 0-.395-1.05c-.138-.295-.277-.59-.389-.884a12.565 12.565 0 0 0-1.817-2.884c-.331-.43-.669-.867-.985-1.328a87.474 87.474 0 0 1 1.607 5.151 8.608 8.608 0 0 1 2.067 2.429M116.723 87.423c-1.191 4.623-1.77 8.472-.7 12.3.3 1.047.613 2.088.928 3.134a131.293 131.293 0 0 1-.033-5.788 92.956 92.956 0 0 1 1.968-17.291c-.225.794-.457 1.587-.682 2.369a202.596 202.596 0 0 0-1.48 5.279M129.483 52.234a10.624 10.624 0 0 0-1.746 2.79 68.223 68.223 0 0 1 2.083-3.229c-.116.145-.227.289-.337.439M280.498 178.627a72 72 0 0 0 11.346-10.768 45.7 45.7 0 0 1-5.223 4.842c-1.764 1.365-3.466 2.792-5.17 4.226a107.679 107.679 0 0 1-9.2 7.156c-.852.569-1.728 1.1-2.6 1.642-.654.4-1.247.818-1.872 1.222a73.9 73.9 0 0 0 12.192-7.92l.527-.4zM120.679 72.551a99.87 99.87 0 0 1 1.342-4.322 19.751 19.751 0 0 0-1.282 4c-.021.11-.038.222-.06.325"/><path d="M174.383 30.543c1.42-.889 2.861-1.752 4.329-2.575a80.9 80.9 0 0 1 13.875-6.16c-.686.179-1.371.352-2.048.526-1.557.4-3.112.793-4.659 1.232-.594.17-1.133.355-1.69.535-1.318.48-2.629 1.038-3.986 1.585a14.256 14.256 0 0 0-3.872 2.777c-.661.687-1.307 1.387-1.949 2.08M256.375 28.458l.447.225a79.307 79.307 0 0 1 11.771 6.773 34.961 34.961 0 0 1 8.251 8.4 25.1 25.1 0 0 0 3.108 3.413c.567.552 1.129 1.1 1.663 1.663 8.378 8.854 13.992 19.261 18.724 29.342-.24-.662-.484-1.325-.725-1.981-.716-1.945-1.433-3.881-2.044-5.852l-4.258-13.7 2.272 3.842c-.139-.281-.284-.564-.414-.853-4.237-8.9-9.677-15.663-16.615-20.65l-.007-.006a9.06 9.06 0 0 0-1.386-.758 18.877 18.877 0 0 1-1.254-.642c-.763-.459-1.557-.838-2.345-1.23a19.1 19.1 0 0 1-4.891-3.04c-.436-.4-.859-.832-1.283-1.272a8 8 0 0 0-2.991-2.325 32.286 32.286 0 0 1-6.155-2.88 67.717 67.717 0 0 0-1.967-1.081l-.508-.265a131.909 131.909 0 0 0-5.1-2.562 102.784 102.784 0 0 0-23.1-4.36 68.806 68.806 0 0 1 14.745 3.6 123.455 123.455 0 0 1 14.06 6.2M162.914 174.854c4.4 3.8 9.664 6.667 14.756 9.437l2 1.087a32.988 32.988 0 0 0 7.047 2.566 46.2 46.2 0 0 1 6.019 2.012c4.08 1.776 8.556 1.8 13.294 1.82l2.621.025c.129 0 .252.009.376.007-4.186-.5-8.3-1.482-12.261-2.927-1.783-.71-3.593-1.359-5.4-2a95.2 95.2 0 0 1-9.486-3.781c-.794-.384-1.583-.8-2.369-1.224a20.542 20.542 0 0 0-7.066-2.739 2.729 2.729 0 0 1-1.908-1.418c-1.143-2.027-3.259-3.309-5.308-4.553l-1.068-.655a58.562 58.562 0 0 1-7.656-5.992 55.945 55.945 0 0 1-7.409-7.964 61.781 61.781 0 0 0 13.822 16.3M198.789 19.975a89.13 89.13 0 0 1 3.882-.9 17 17 0 0 0-3.6.8l-.286.1M272.209 175.523c.69-.679 1.374-1.359 2.094-2a6.981 6.981 0 0 1 2.813-1.419c.824-.256 1.205-.4 1.363-.674a14.582 14.582 0 0 1 5.285-4.881c.643-.409 1.28-.819 1.894-1.272.238-.232.446-.492.62-.775.156-.229.313-.452.479-.662a10.964 10.964 0 0 0 1.37-2.648c.176-.431.352-.87.557-1.3a118 118 0 0 1-16.452 15.295 63.153 63.153 0 0 1-9.439 5.876c-2.139 1.16-4.353 2.366-6.4 3.708-.1.063-.2.133-.309.2a55.582 55.582 0 0 0 12.075-5.89 30.377 30.377 0 0 0 4.049-3.555M155.114 47.021c1.123-1.052 1.4-1.413 1.2-2.217l-.026-.136a4.53 4.53 0 0 0-2.3 3.5c.35-.407.726-.791 1.125-1.151M152.252 19.427c1.43-1.236 2.852-2.514 4.283-3.7-.719.494-1.434.993-2.142 1.487-2.163 1.5-4.331 3.007-6.557 4.392l-15.521 9.643 4.01-4.036c-.3.26-.6.522-.9.777-9.6 8.055-16.181 16.9-20.113 27.059-.216.632-.378 1.28-.482 1.94-.119.606-.238 1.2-.4 1.775-.317 1.087-.534 2.183-.757 3.28a24.886 24.886 0 0 1-2.175 6.988c-.351.667-.75 1.319-1.155 1.971-.949 1.545-1.844 3.008-1.908 4.449a41.29 41.29 0 0 1-1.579 8.49 95.115 95.115 0 0 0-.7 2.783l-.168.734c-1.223 5.22-2.471 10.686-2.528 15.879a110.318 110.318 0 0 0 4.291 30.127c.039.132.069.261.1.4-.327-1.93-.612-3.861-.89-5.763l-.365-2.456a86.486 86.486 0 0 1-.385-20.582 157.985 157.985 0 0 1 3.128-19.3l.164-.772a99.659 99.659 0 0 1 4.538-16.511 44.607 44.607 0 0 1 7.7-12.853 31.334 31.334 0 0 0 3.18-4.868 76.665 76.665 0 0 1 1.555-2.636 101.106 101.106 0 0 1 9.071-12.107 90.614 90.614 0 0 1 9.318-10.8 51.008 51.008 0 0 1 7.386-5.785M161.495 203.715l-.157.08a5.763 5.763 0 0 0 5.048 1.713 17.086 17.086 0 0 1-1.766-1.012c-1.666-1.051-2.189-1.261-3.125-.781M292.489 24.569c-.518-.495-.941-1.063-1.488-1.536a38.843 38.843 0 0 0-5.688-3.857 83.207 83.207 0 0 1-3.116-1.929 9 9 0 0 1-2.646-3c-.578-.938-.879-1.357-1.275-1.463-3.332-.919-5.651-3.066-7.7-4.958-.705-.653-1.416-1.313-2.167-1.914a4.586 4.586 0 0 0-1.148-.515c-.33-.116-.658-.238-.974-.378a13.847 13.847 0 0 0-3.7-.841 34.585 34.585 0 0 1-1.774-.265c8.043 3.9 15.747 9.113 24.1 15.353a53.583 53.583 0 0 1 5.211 4.534c.567.167 1.137.331 1.693.513.226.072.449.173.675.261M108.302 136.546c.084 1.225.362 2.429.826 3.566a78.603 78.603 0 0 1-.92-4.235c.035.223.065.448.094.669M121.561 166.401c.441.793.876 1.579 1.31 2.367.987 1.791 1.973 3.585 3.016 5.347 2.679 4.555 5.247 8.032 9.089 10.2a143.61 143.61 0 0 0 3.192 1.735 131.34 131.34 0 0 1-4.569-4.515 102.234 102.234 0 0 1-12.038-15.129M301.776 35.689c.12.11.233.218.352.321-1.694-2.394-3.427-4.728-5.286-6.947.159.633.234 1.284.223 1.937 1.528 1.613 3.083 3.214 4.711 4.689M117.115 159.059c.082.119.166.24.242.359a117.41 117.41 0 0 1-2.391-4.544 21.616 21.616 0 0 0 2.149 4.185M325.923 107.79c-.3 2.408-.507 4.824-.722 7.242a118.95 118.95 0 0 1-1.624 12.943 80.477 80.477 0 0 1-.753 3.348c-.792 3.279-1.542 6.392-1.1 9.536.02.143.028.288.024.433a3.685 3.685 0 0 1-1.133 2.354c-2.158 2.078-3.058 5.1-3.939 8.024l-.458 1.5a75.312 75.312 0 0 1-4.92 11.354 70.792 70.792 0 0 1-7.407 11.63 78.81 78.81 0 0 0 15.624-22.2c3.254-6.617 5.091-13.993 6.863-21.125l.718-2.869c.66-3.12.964-6.305.906-9.494-.01-2.7.172-5.396.546-8.069.881-5.639-.518-11.116-2.012-16.951l-.806-3.229a16.33 16.33 0 0 0-.118-.473c.732 5.316.838 10.7.315 16.04"/><path d="M152.252 19.427a51.008 51.008 0 0 0-7.386 5.785 90.614 90.614 0 0 0-9.318 10.8 155.981 155.981 0 0 1 16.7-16.584M297.066 31.001a7.472 7.472 0 0 0-.224-1.938 56.11 56.11 0 0 0-4.353-4.5c-.226-.088-.449-.189-.674-.261-.558-.182-1.126-.346-1.693-.513 1.75 1.7 3.422 3.471 5.052 5.214.619.662 1.258 1.328 1.892 2M221.977 206.079c-2.4.021-4.851 0-7.309-.068a75.345 75.345 0 0 0 15.97.444c1.74-.136 3.47-.36 5.187-.672a63.887 63.887 0 0 1-7.382.313c-2.152-.052-4.305-.034-6.466-.017M213.191 9.842c-.513.18-1.018.353-1.523.484-.945.239-1.864.559-2.788.878a21.978 21.978 0 0 1-6.221 1.449 25.65 25.65 0 0 1-2 0 8.853 8.853 0 0 0-4.176.533c-2.27 1.1-4.65 1.96-7.1 2.564-.8.22-1.589.445-2.375.69l-.711.221c-4.43 1.388-9.007 2.813-12.973 5.087a96.319 96.319 0 0 0-20.738 16.52l-.27.268a200.641 200.641 0 0 1 3.963-3.237l1.676-1.347a75.325 75.325 0 0 1 15.3-9.374 135.364 135.364 0 0 1 15.88-6.164l.586-.2a87.1 87.1 0 0 1 14.475-3.9 39.433 39.433 0 0 1 10.815-.1 13.7 13.7 0 0 1 3.358.06c.66.098 1.324.154 1.991.168a89.581 89.581 0 0 1 24.679 2.812c1.083.291 2.089.77 3.134 1.161a187.52 187.52 0 0 1 14.447 4.561c-.692-.326-1.39-.647-2.083-.968-2.087-.96-4.172-1.921-6.194-2.985l-14.079-7.4 4.788 1.229c-.33-.109-.658-.22-.983-.336a66.709 66.709 0 0 0-13.047-3.2c-3.806-.259-7.666-.426-11.567-.4-1.54.112-3.081.184-4.6.434a10.4 10.4 0 0 0-1.664.49M133.906 63.234c-.387.659-.775 1.311-1.162 1.958-.91 1.541-1.828 3.089-2.7 4.657-2.246 4.031-3.672 7.441-3.647 11.33.018 1.049.062 2.1.1 3.149.422-1.806.872-3.609 1.373-5.412a88.99 88.99 0 0 1 6.04-15.682M137.486 56.61c-.046.1-.092.2-.141.3.742-1.25 1.52-2.507 2.335-3.756a19.392 19.392 0 0 0-2.194 3.459M123.511 109.669l-.132-.085v.006a5.071 5.071 0 0 0 .944 4.556c-.04-.594-.045-1.19-.016-1.784.053-1.713-.016-2.2-.8-2.693M150.509 40.056a10.2 10.2 0 0 0-2.3 2.189c.9-.881 1.832-1.731 2.773-2.556-.152.118-.311.242-.468.367M317.49 96.093c.325 4.366.36 8.748.106 13.119.453-2.737.744-5.5.873-8.271.028-.827-.022-1.657-.037-2.485-.114-.289-.217-.571-.34-.866-.205-.49-.409-.99-.6-1.5M265.679 192.053c-1.091.5-2.189.991-3.272 1.508a104.6 104.6 0 0 1-10.443 4.5c-.925.32-1.866.607-2.814.9-1.41.427-2.779.845-4.071 1.369 2.606-.62 5.251-1.338 8-2.269a72.453 72.453 0 0 0 12.6-6"/><path d="M231.026 9.322a53.829 53.829 0 0 0-11.567-.4c3.9-.022 7.761.145 11.567.4M313.152 135.287c-.541 1.872-1.062 3.763-1.451 5.648-.031.135-.059.27-.089.4a61.381 61.381 0 0 0 4.84-14.079c.237-1.409.356-2.835.358-4.264a215.913 215.913 0 0 1-2.378 8.625c-.369 1.25-.824 2.461-1.281 3.67M253.698 199.878a72.734 72.734 0 0 1-25.211 4.29c-.629-.013-1.261-.007-1.891-.01-2.62.4-5.212.655-7.522.79a61.712 61.712 0 0 1-12.027-.433 59.11 59.11 0 0 0 7.621 1.5c2.458.071 4.906.088 7.31.068 2.159-.017 4.313-.035 6.465.016 2.465.039 4.93-.065 7.382-.312a126.206 126.206 0 0 0 13.709-3.486l2.486-.727a36.757 36.757 0 0 0 7.545-3.513 51.066 51.066 0 0 1 6.291-3.148 27.43 27.43 0 0 0 8.494-5.772c-.052.033-.093.074-.144.106-6.633 3.959-13.177 8.143-20.508 10.635"/><path d="m277.72 185.902 2.064-2.019c.1-.1.19-.184.28-.28a60.008 60.008 0 0 1-11.9 7.3c-.839.363-1.659.763-2.489 1.147a72.479 72.479 0 0 1-12.6 6c-2.746.931-5.391 1.649-8 2.269-1.295.5-2.513 1.18-3.618 2.02a3.021 3.021 0 0 1-2.61.385c-2.476-.691-5.139-.044-7.707.588l-1.376.321c-1.059.245-2.112.359-3.171.522.629 0 1.262 0 1.891.01a72.687 72.687 0 0 0 25.21-4.291c7.33-2.49 13.875-6.675 20.507-10.635.052-.03.093-.072.146-.1a130.784 130.784 0 0 0 3.369-3.236M317.595 109.212c-.15 2.925-.37 5.8-.652 8.568a8.381 8.381 0 0 1 1.067-3c.443-.849.612-1.25.538-1.605-.774-2.9-.193-5.6.328-7.989.184-.821.359-1.636.485-2.463v-.081a5.34 5.34 0 0 0-.126-.979c-.057-.31-.113-.627-.152-.937a9.263 9.263 0 0 0-.655-2.265c.015.828.065 1.659.036 2.485a70.327 70.327 0 0 1-.873 8.271M316.921 118.093c0-.08.005-.16.013-.235-.1 1.064-.222 2.115-.339 3.154a69.263 69.263 0 0 1-2.788 11.995c-.221.749-.437 1.518-.657 2.28.458-1.209.913-2.419 1.281-3.67.847-2.856 1.65-5.732 2.38-8.625.012-.564.033-1.116.036-1.7.005-1.067.005-2.135.074-3.2M220.365 14.455a15.7 15.7 0 0 1-1.993-.169 13.842 13.842 0 0 0-3.357-.061c.743.09 1.512.078 2.248.213 1.68.24 3.379.323 5.074.247a63.08 63.08 0 0 1 2.647.005 98.1 98.1 0 0 1 23.192 3.738c-1.043-.393-2.05-.87-3.133-1.162a89.532 89.532 0 0 0-24.678-2.811M19.643 65.756l.081-1.35a.763.763 0 0 1 .023-.241c.295-.713.592-1.426.9-2.134.13-.3.286-.583.432-.873.065-.149.141-.293.227-.431.277-.4.573-.785.848-1.184a1.985 1.985 0 0 1 1.73-.874 2.808 2.808 0 0 0 1.814-.583 12.4 12.4 0 0 1 1.579-.9 1.792 1.792 0 0 1 1.895.117c.455.25.947.431 1.407.672.325.158.63.354.909.584a8.992 8.992 0 0 1 1.771 1.827c.56.878.928 1.865 1.079 2.895.017.285-.006.57-.07.848-.108.476-.185.958-.231 1.444a6.978 6.978 0 0 1-.692 2.51 1.745 1.745 0 0 0-.142.4c-.105.663-.157 1.336-.306 1.99a6.394 6.394 0 0 1-.485 1.108 4.326 4.326 0 0 1-2.864 2.274 3.5 3.5 0 0 0-.784.443c-.33.266-.676.511-1.036.734a2.159 2.159 0 0 1-1.732-.023 10.985 10.985 0 0 1-2.939-1.426c-.29-.25-.562-.52-.815-.808-.084-.086-.14-.22-.24-.266-.566-.268-.736-.836-1.042-1.307a5.937 5.937 0 0 1-.611-2.634c-.032-.24-.1-.473-.2-.692a4.939 4.939 0 0 1-.509-2.112"/></g></svg>