<?xml version="1.0" encoding="utf-8"?>
<!-- Generator: Adobe Illustrator 25.2.3, SVG Export Plug-In . SVG Version: 6.00 Build 0)  -->
<svg version="1.1" id="Calque_1" xmlns="http://www.w3.org/2000/svg" xmlns:xlink="http://www.w3.org/1999/xlink" x="0px" y="0px"
	 width="108.3px" height="66.8px" viewBox="0 0 108.3 66.8" style="enable-background:new 0 0 108.3 66.8;" xml:space="preserve">
<style type="text/css">
	.st0{fill:#009548;}
	.st1{fill-rule:evenodd;clip-rule:evenodd;fill:#CCD400;}
	.st2{fill-rule:evenodd;clip-rule:evenodd;fill:#88BC24;}
	.st3{fill-rule:evenodd;clip-rule:evenodd;fill:#009A3E;}
	.st4{fill-rule:evenodd;clip-rule:evenodd;fill:#F8B133;}
	.st5{fill:#009A3E;}
	.st6{fill:#B13A0B;}
	.st7{fill:#B90845;}
	.st8{fill-rule:evenodd;clip-rule:evenodd;fill:#EB5F7E;}
	.st9{fill-rule:evenodd;clip-rule:evenodd;fill:#007D4B;}
	.st10{fill:#EAA765;}
	.st11{fill:#88BC24;}
	.st12{fill:#1DA0DB;}
	.st13{fill:#009BDB;}
	.st14{fill:#0075BB;}
	.st15{fill:#FFFFFF;}
</style>
<g>
	<path class="st0" d="M27.1,43.3L27.1,43.3c-0.2-0.2-0.5-0.8-1.8-0.8c-1.5,0-2.3,1-2.3,2.7c0,0.3,0,1.1,0.5,1.9
		c0.3,0.4,0.8,0.8,1.6,0.8c1.1,0,1.7-0.5,2.1-1l0.1,0.1l-0.1,0.9c-0.7,0.4-1.5,0.6-2.3,0.6c-1.8,0-3.2-1.1-3.2-3.1
		c0-1.8,1.1-3.2,3.5-3.2c0.7,0,1.4,0.1,2.1,0.4L27.1,43.3z"/>
	<path class="st0" d="M36.6,45.1c0,2-1.4,3.3-3.4,3.3c-1.9,0-3.4-1.1-3.4-3c0-2.3,1.6-3.3,3.4-3.3C34.9,42,36.6,42.9,36.6,45.1z
		 M33.2,47.9c1.5,0,2.1-1.4,2.1-2.7c0-1.5-0.5-2.7-2.1-2.7c-1.6,0-2.1,1.5-2.1,2.7C31.1,46.5,31.7,47.9,33.2,47.9z"/>
	<path class="st0" d="M40.8,42.6c0.6,1.2,0.8,1.7,1.7,3.2l0.5,0.9l0.3-0.6c0.8-1.5,1.2-2.2,2.2-4c0.1,0,0.1,0,0.2,0
		c0.1,0,0.1,0,0.2,0l0.1,0.7c0.1,1.1,0.2,2,0.4,3.1c0.1,0.5,0.3,1.8,0.4,2.3c-0.2,0-0.5-0.1-0.6-0.1c-0.2,0-0.3,0-0.6,0.1l0-0.3
		c0-0.2-0.1-1-0.1-1.1c0-0.4-0.3-2.2-0.3-2.6c-0.6,1-1.6,2.8-2.1,4c-0.1,0-0.1,0-0.2,0c-0.1,0-0.1,0-0.2,0c-0.3-0.7-0.6-1.1-1.2-2.3
		c-0.1-0.3-0.8-1.4-0.9-1.6c-0.2,1.2-0.3,2.6-0.4,4c-0.2,0-0.3-0.1-0.4-0.1c-0.1,0-0.3,0-0.4,0.1l0.1-0.3c0.2-1.1,0.8-4.8,0.9-5.8
		c0.1,0,0.1,0,0.2,0c0.1,0,0.1,0,0.2,0L40.8,42.6z"/>
	<path class="st0" d="M50.8,46.8c0,0.8,0,1.1,0.1,1.4c-0.2,0-0.4-0.1-0.6-0.1s-0.4,0-0.6,0.1c0-0.7,0.1-1.1,0.1-1.3l0-2.2
		c0-0.4,0-1.2,0-1.5l0-1.1c0.2,0,0.4,0,0.9,0c0.2,0,1,0,1.2,0c0.4,0,0.9,0,1.3,0.3c0.3,0.2,0.6,0.6,0.6,1.3c0,0.8-0.5,1.8-2.3,1.8
		c-0.3,0-0.4,0-0.6,0V46.8z M50.8,45c0.2,0,0.3,0,0.5,0c1,0,1.3-0.9,1.3-1.3c0-0.7-0.4-1.2-1.1-1.2c-0.2,0-0.4,0-0.6,0V45z"/>
	<path class="st0" d="M59.5,47.2l-0.4-0.9c-0.4,0-0.8,0-1.2,0c-0.4,0-0.7,0-1.1,0c-0.3,0.7-0.6,1.4-0.7,1.9c-0.1,0-0.3-0.1-0.4-0.1
		c-0.2,0-0.3,0-0.4,0.1l1-2.3c0.9-2,1.4-3.2,1.7-3.9c0.1,0,0.2,0,0.3,0c0.1,0,0.2,0,0.3,0c0.4,1.2,1,2.5,1.3,3.2
		c0.3,0.8,0.9,2.1,1.3,3c-0.1,0-0.5-0.1-0.7-0.1c-0.3,0-0.5,0-0.7,0.1L59.5,47.2z M58,43.5l-0.9,2.2c0.3,0,0.6,0,0.9,0
		c0.3,0,0.5,0,0.8,0L58,43.5z"/>
	<path class="st0" d="M66.6,42c0.7,0,1.4,0.1,2.1,0.4l-0.3,0.9h-0.1c-0.1-0.2-0.4-0.8-1.7-0.8c-1.5,0-2.3,1-2.3,2.7
		c0,0.7,0.1,1.3,0.5,1.9c0.3,0.4,0.8,0.8,1.6,0.8c0.4,0,0.9-0.1,1.3-0.3c0-0.6,0-0.7,0-0.8c0-0.4,0-0.9-0.1-1.3
		c0.2,0,0.4,0.1,0.6,0.1c0.3,0,0.4,0,0.6-0.1c-0.1,0.3-0.1,1.3-0.1,1.5c0,0.3,0,0.6,0,0.8c-0.8,0.4-1.8,0.6-2.6,0.6
		c-1.8,0-3.2-1.1-3.2-3.1C63,43.4,64.2,42,66.6,42z"/>
	<path class="st0" d="M72.2,44.6c0-0.8,0-1.7,0-2.5c0.1,0,0.1,0,0.2,0s0.1,0,0.2,0c0.9,0.9,1.7,1.8,2.8,2.8l1.1,1
		c0.2,0.2,0.3,0.2,0.5,0.4v-2c0-0.8,0-1.5-0.1-2.3c0.1,0,0.2,0.1,0.4,0.1s0.3,0,0.4-0.1c-0.1,1.1-0.1,1.7-0.1,3c0,0.5,0,1.8,0,2.3
		c0,0.2,0,0.7,0,0.9c-0.1,0-0.1,0-0.2,0c-0.1,0-0.1,0-0.2,0c-1.1-1.2-3.4-3.4-4.3-4.3c0,1.2,0,1.9,0,2.8c0,0.5,0,0.6,0.1,1.4
		c-0.1,0-0.3-0.1-0.4-0.1c-0.1,0-0.3,0-0.4,0.1l0.1-1.2c0-0.2,0-0.9,0-1.2V44.6z"/>
	<path class="st0" d="M80.8,42.1c0.2,0,0.5,0.1,0.6,0.1c0.2,0,0.4,0,0.6-0.1C82,42.7,82,44.3,82,45.2c0,1.3,0,2.3,0.1,3
		c-0.2,0-0.4-0.1-0.6-0.1c-0.2,0-0.5,0-0.6,0.1c0.1-1.1,0.1-2.5,0.1-4.1C80.9,43.6,80.9,42.9,80.8,42.1z"/>
	<path class="st0" d="M86.6,44.7c0.5,0,1.5,0,1.9-0.1c0,0.1,0,0.2,0,0.3c0,0.1,0,0.2,0,0.3c-0.2,0-0.5,0-0.7,0c-0.4,0-0.8,0-1.3,0
		v2.4c0.2,0,1.4,0,2.2-0.1c0,0.1,0,0.2,0,0.3c0,0.1,0,0.2,0,0.3c-0.5,0-1.1-0.1-1.7-0.1c-0.5,0-1.1,0-1.7,0.1c0-0.4,0-0.7,0-1.1
		c0-0.5,0-1.6,0-2c0-0.4,0-2.1-0.1-3c0.4,0,1.1,0.1,1.6,0.1c0.4,0,1,0,1.7-0.1c0,0.1,0,0.2,0,0.3c0,0.1,0,0.3,0,0.3l-0.8,0
		c-0.3,0-0.4,0-1.3,0V44.7z"/>
</g>
<g>
	<path class="st0" d="M0.1,58.5c0-0.9,0-1.1-0.1-2.8c0-0.4-0.1-2.2-0.1-2.5c0.5,0.1,0.9,0.1,1.4,0.1s0.9,0,1.4-0.1
		c-0.1,2.9-0.2,5.4-0.2,8.4c0,1.4,0,2.6,0.1,3.7H3c0.6,0,3.4,0,4.6-0.2c-0.1,0.2-0.1,0.3-0.1,0.8c0,0.3,0,0.4,0.1,0.7
		c-1,0-2.7-0.1-3.8-0.1c-1.3,0-2.3,0-3.8,0.1c0-0.3,0.1-4.8,0.1-5.3V58.5z"/>
	<path class="st0" d="M12.4,59c1,0,3.2,0,4.3-0.1c-0.1,0.2-0.1,0.4-0.1,0.7c0,0.3,0,0.5,0.1,0.7c-0.5,0-1-0.1-1.5-0.1
		c-0.9,0-1.8,0-2.7,0v5.3c0.5,0,3-0.1,4.7-0.1C17,65.4,17,65.6,17,65.9c0,0.3,0,0.5,0.1,0.7c-1.2-0.1-2.4-0.1-3.6-0.1
		c-1.2,0-2.4,0-3.7,0.1c0-0.8,0.1-1.6,0.1-2.4c0-1.1,0.1-3.5,0.1-4.4c0-0.8,0-4.6-0.2-6.5c1,0.1,2.5,0.1,3.6,0.1
		c0.9,0,2.2-0.1,3.6-0.1c-0.1,0.2-0.1,0.4-0.1,0.6c0,0.3,0,0.6,0.1,0.7l-1.9-0.1c-0.7,0-0.9,0-2.7,0V59z M13.1,52.4h-1l2.8-3
		c0.3-0.3,0.6-0.5,0.9-0.5c0.5,0,0.9,0.3,0.9,0.8c0,0.4-0.3,0.6-0.4,0.7L13.1,52.4z"/>
	<path class="st0" d="M27,64.4l-0.8-2.1c-0.8,0-1.7-0.1-2.5-0.1c-0.8,0-1.6,0-2.4,0.1c-0.6,1.5-1.3,3.1-1.6,4.2
		c-0.3,0-0.6-0.1-0.9-0.1c-0.3,0-0.6,0.1-0.9,0.1l2.3-5c2-4.4,3.1-6.9,3.6-8.5c0.2,0.1,0.4,0.1,0.6,0.1c0.2,0,0.4,0,0.6-0.1
		c0.9,2.7,2.1,5.4,2.8,7c0.7,1.7,2,4.6,2.9,6.5c-0.3,0-1-0.1-1.5-0.1c-0.6,0-1.1,0.1-1.5,0.1L27,64.4z M23.8,56.4l-2,4.8
		c0.7,0,1.4,0.1,2,0.1c0.6,0,1.2,0,1.8-0.1L23.8,56.4z"/>
	<path class="st0" d="M37.6,58.7c0-1.8,0-3.7,0-5.5c0.2,0,0.3,0,0.5,0c0.2,0,0.3,0,0.5,0c1.9,2,3.6,3.9,6,6.1l2.3,2.3
		c0.4,0.3,0.6,0.5,1,0.8v-4.3c0-1.7-0.1-3.3-0.2-4.9c0.2,0.1,0.5,0.1,0.8,0.1s0.6-0.1,0.8-0.1C49.1,55.6,49,57,49,59.8
		c0,1.1,0,3.9,0,4.9c0,0.4,0,1.4,0,1.9c-0.1,0-0.3,0-0.4,0c-0.1,0-0.3,0-0.4,0c-2.5-2.7-7.3-7.5-9.4-9.3c0,2.6,0,4.1,0.1,6.1
		c0,1.1,0,1.3,0.2,3.1c-0.2,0-0.6-0.1-0.9-0.1c-0.3,0-0.6,0.1-0.8,0.1l0.2-2.7c0-0.5,0.1-2,0.1-2.5V58.7z"/>
	<path class="st0" d="M59.5,64.4l-0.8-2.1c-0.8,0-1.7-0.1-2.5-0.1c-0.8,0-1.6,0-2.4,0.1c-0.6,1.5-1.3,3.1-1.6,4.2
		c-0.3,0-0.6-0.1-0.9-0.1c-0.3,0-0.6,0.1-0.9,0.1l2.3-5c2-4.4,3.1-6.9,3.6-8.5c0.2,0.1,0.4,0.1,0.6,0.1c0.2,0,0.4,0,0.6-0.1
		c0.9,2.7,2.1,5.4,2.8,7c0.7,1.7,2,4.6,2.9,6.5c-0.3,0-1-0.1-1.5-0.1c-0.6,0-1.1,0.1-1.5,0.1L59.5,64.4z M56.2,56.4l-2,4.8
		c0.7,0,1.4,0.1,2,0.1c0.6,0,1.2,0,1.8-0.1L56.2,56.4z"/>
	<path class="st0" d="M68.5,63.9c0,1.5,0.1,2.1,0.1,2.7c-0.6-0.1-1.2-0.1-1.4-0.1c-0.3,0-0.6,0-1.3,0.1c0.1-1.5,0.2-3,0.2-4.5l0-5.4
		c0-0.7,0-1.4,0-2.2h-1c-0.2,0-2.1,0-3.1,0.1c0.1-0.2,0.1-0.5,0.1-0.7s0-0.5-0.1-0.7c1.6,0.1,3.7,0.1,5.3,0.1c1.6,0,3.4,0,5.3-0.1
		c-0.1,0.3-0.1,0.6-0.1,0.7c0,0.2,0,0.4,0.1,0.7c-1.2-0.1-2.6-0.1-3.9-0.1c0,0.7,0,1.4,0,2.2V63.9z"/>
	<path class="st0" d="M76.8,54.7c-0.1,1.5-0.1,3.3-0.1,5c0,3.1,0,3.8,0.6,4.6c0.6,0.8,1.6,1.2,3,1.2c1.6,0,2.9-0.8,3.3-2
		c0.2-0.4,0.3-1,0.3-2.6c0-2.5,0-5.1-0.2-7.6c0.3,0,0.6,0.1,0.9,0.1c0.3,0,0.6-0.1,0.9-0.1l-0.1,0.9c-0.1,1.7-0.2,5.7-0.2,7.6
		c0,2.3-0.7,3.3-2,4.2c-0.9,0.6-2.2,0.8-3.3,0.8c-2.4,0-5.2-0.7-5.6-3.8c0-0.3,0-0.9,0-1v-5.3c0-1,0-2.5-0.1-3.5
		c0.5,0.1,0.9,0.1,1.4,0.1c0.4,0,0.9-0.1,1.3-0.1L76.8,54.7z"/>
	<path class="st0" d="M95,60.7c0.3,0.4,0.7,1.1,1,1.5c1.6,2.2,2.1,2.8,3.3,4.4c-0.6-0.1-1-0.1-1.8-0.1c-0.8,0-1,0-1.6,0.1
		c-0.3-0.4-0.7-1.2-1-1.6c-1-1.5-2.2-3.2-3.3-4.7h-0.5V63c0,0.6,0.1,3.1,0.1,3.6c-0.4,0-0.8-0.1-1.3-0.1c-0.5,0-0.9,0.1-1.4,0.1
		c0.2-3.8,0.2-4.3,0.2-8c0-2.5,0-2.8-0.1-5.3c0.5,0,1,0.1,2,0.1c0.5,0,2.8-0.1,3.2-0.1c1.3,0,2.2,0.2,3.1,1c0.6,0.6,0.9,1.4,0.9,2.2
		c0,2.2-1.6,3.3-3.4,3.6L95,60.7z M91.2,59.3c0.4,0,0.8,0.1,1.4,0.1c2,0,2.7-1.4,2.7-2.7c0-0.8-0.1-1.5-0.8-2
		c-0.5-0.4-1.2-0.5-1.8-0.5c-0.4,0-1.1,0.1-1.4,0.1V59.3z"/>
	<path class="st0" d="M103.6,59c1,0,3.2,0,4.3-0.1c-0.1,0.2-0.1,0.4-0.1,0.7c0,0.3,0,0.5,0.1,0.7c-0.5,0-1-0.1-1.5-0.1
		c-0.9,0-1.8,0-2.7,0v5.3c0.5,0,3-0.1,4.7-0.1c-0.1,0.2-0.1,0.4-0.1,0.6c0,0.3,0,0.5,0.1,0.7c-1.2-0.1-2.4-0.1-3.6-0.1
		c-1.2,0-2.4,0-3.7,0.1c0-0.8,0.1-1.6,0.1-2.4c0-1.1,0.1-3.5,0.1-4.4c0-0.8,0-4.6-0.2-6.5c1,0.1,2.5,0.1,3.6,0.1
		c0.9,0,2.2-0.1,3.6-0.1c-0.1,0.2-0.1,0.4-0.1,0.6c0,0.3,0,0.6,0.1,0.7l-1.9-0.1c-0.7,0-0.9,0-2.7,0V59z"/>
</g>
<g>
	<path class="st1" d="M61.6,23.8c0,0,2.7,0.2,3,0.1c0,0,0.4-0.2,0.4-0.7c0-0.5,0.2-0.7,0.3-0.8c0.1-0.1,0.2,0,0.2,0
		c0,0,0.1,0,0.2,0.2c0,0.2,0.2,0.1,0.2,0.1s0.1,0,0.1,0.1c0,0.1,0.1-0.1,0.2,0.1c0,0.1,0.1,0,0.1,0.2l0.1,0.1l0.1,0.1
		c0,0.1,0.3,0.2,0.1,0.3l-0.1,0.1c-0.1,0.1-0.5,0.1-0.7,0.2c-0.1,0,1-0.2,0.8,0.3c-0.1,0.2,0,0.1,0,0.2c0,0.1-0.1,0.1-0.1,0.1l0,0.1
		l-0.1,0.1l0,0.1l-0.1,0.1l0,0.2l-0.2,0.1c-0.1,0,0,0.1-0.2,0.1l-0.1,0.1l-0.1,0.1l-0.1,0.1c-0.1,0-0.2,0-0.3-0.5
		c-0.1-0.4-0.3-1-0.6-1C64.2,24,61.5,23.8,61.6,23.8L61.6,23.8z"/>
	<path class="st1" d="M50.7,22.8c-0.7-0.4-1.5-0.4-1.6-0.5c0,0-0.2-0.2-0.1-0.6c0.1-0.4,0-0.6,0-0.7c-0.1-0.1-0.1,0-0.1,0
		c0,0-0.1,0-0.2,0.1c-0.1,0.1-0.1,0-0.1,0s-0.1-0.1-0.1,0.1c0,0.1-0.1-0.1-0.2,0c0,0-0.1,0-0.1,0.1L48,21.3l-0.1,0.1
		c0,0.1-0.2,0.1-0.1,0.2l0,0.1c0,0.1,0.4,0.2,0.5,0.3c0,0-0.7-0.3-0.7,0.1c0,0.1,0,0.1,0,0.2l0.1,0.1l0,0.1l0,0.1l0,0.1l0.1,0.1
		l-0.1,0.2l0.1,0.1c0.1,0,0,0.1,0.1,0.1l0,0.1l0.1,0.1l0.1,0.1c0,0,0.2,0,0.4-0.3c0.2-0.3,0.5-0.7,0.7-0.6
		C49.2,22.4,49.5,22.3,50.7,22.8L50.7,22.8"/>
	<path class="st2" d="M45.8,10.2C45.4,10,46,10.3,45,9.8c-0.2-0.1-0.6-0.9-0.9-1.4c-0.2-0.3-0.4,0-0.3,0.1l0,0.1l-0.1,0.1l-0.1,0
		c-0.1,0-0.6,0.4-0.3,0.9c0.1,0.1,0,0.1,0,0.2c0,0.1,0.1,0.3,0.3,0.2C44,9.9,44.6,9.7,45,9.8c0.6,0.2,0.5,0.2,0.7,0.4L45.8,10.2z"/>
	<path class="st1" d="M56.2,11.4c0.4-0.3-0.2,0.2,0.8-0.7c0.2-0.2,1.2-0.3,1.9-0.5c0.4-0.1,0.1-0.4,0-0.4c0,0-0.1,0-0.1-0.1
		c0-0.1-0.1-0.1-0.1-0.1l0-0.1c0-0.1-0.3-0.8-0.9-0.7c-0.2,0-0.1-0.1-0.2-0.1c-0.1,0-0.4,0-0.4,0.3c0,0.6,0,1.4-0.3,1.7
		c-0.5,0.5-0.2,0.2-0.7,0.7L56.2,11.4z"/>
	<path class="st1" d="M53.3,14.3c0.1-0.6,0,0.3,0.1-1.2c0-0.3,0.7-1.1,1.2-1.7c0.2-0.4-0.2-0.4-0.3-0.3l-0.1,0L54,11l-0.1-0.1
		c-0.1-0.1-0.8-0.5-1.2,0.1c-0.1,0.2-0.1,0-0.2,0.1c-0.1,0.1-0.3,0.3-0.1,0.5c0.5,0.5,1,1.1,1,1.6c0,0.8,0,0.7-0.1,1L53.3,14.3z"/>
	<path class="st1" d="M45.5,24.5c-0.4,0.4,0.2-0.2-0.8,0.9c-0.2,0.2-1.2,0.5-2,0.7c-0.4,0.1-0.1,0.5,0.1,0.5c0,0,0.1,0,0.1,0.1
		c0,0.1,0.1,0.1,0.1,0.1l0,0.1c0,0.2,0.4,0.8,1,0.7c0.2-0.1,0.1,0,0.2,0.1c0.1,0,0.4-0.1,0.4-0.3c-0.1-0.7-0.2-1.5,0.1-1.9
		c0.5-0.6,0.4-0.6,0.7-0.8L45.5,24.5z"/>
	<path class="st3" d="M64.1,25.8c0.6,0.5-0.6,1.9-0.3,2.2c0.1,0.2,0.2-0.1,0.3,0c0.1,0.1,0,0.1,0.2,0.2c0.1,0,0.2-0.2,0.3-0.1
		c0.1,0.1,0.2,0.1,0.2,0c0,0,0.1-0.1,0.1-0.1c0.1,0,0.1,0,0.2-0.1c0.1,0,0-0.2,0.1-0.2c0.2,0.2,0.6-0.2,0.6-0.4l0.1-0.3
		c0.1,0,0.2,0,0.3-0.1c0.1-0.1,0-0.4,0.1-0.5l0.1-0.2c0-0.1,0-0.1,0-0.2c0.1-0.1,0-0.2,0-0.2l0-0.2l-0.1-0.1c0.3-0.4,0-0.4-0.1-0.4
		c-0.1-0.2-0.7,0.2-0.9,0.3c-0.2,0.1-1,0.6-1.4,0.2c-1.5-1.3-1.8-1.4-2.5-1.8l-0.1,0C61.5,23.8,62,24,64.1,25.8"/>
	<path class="st4" d="M43.9,20.5c0,0,0-0.4-3.6-1.8c-0.3-0.1-0.9-1-1.4-1.5c-0.3-0.3-0.5,0.1-0.4,0.2l0,0.1l-0.1,0.1l-0.1,0
		c-0.2,0-0.7,0.6-0.3,1.1c0.1,0.2,0,0.1,0,0.2s0.2,0.3,0.4,0.2c0.6-0.3,1.4-0.6,1.9-0.5c1.6,0.5,2.8,1.1,3.3,1.5
		c0.1,0.1-0.3,0-0.5,0.1c-1.2,0-2.9,0.2-3.4,0.3c-0.7,0.1-1.3-0.9-1.4-1.1c-0.1-0.3-0.5-1.1-0.8-0.9c-0.1,0-0.5-0.2-0.4,0.4
		c0,0.1-0.1,0.1-0.2,0.1c-0.1,0-0.3,0.1-0.2,0.2c0.1,0.1-0.1,0.1-0.1,0.3c0,0.2,0,0.1-0.1,0.2c-0.1,0.1-0.1,0.1-0.1,0.2
		c0,0.1-0.3,0.3-0.3,0.5c0,0.2,0.2,0.3,0.2,0.3l-0.2,0.4c-0.1,0.2,0.1,0.8,0.5,0.8c0.2,0,0,0.2,0,0.2l0.2,0.2l0.1,0.2
		c0,0,0.1,0.2,0.3,0.1c0.2,0,0.1,0.2,0.3,0.3c0.2,0.1,0.2-0.1,0.3-0.1c0.2,0,0,0.4,0.4,0.3c0.6-0.2,0.3-2,1.3-2.6
		c0.2-0.1,2.4-0.4,3.6-0.4C43.6,20.5,43.8,20.6,43.9,20.5"/>
	<path class="st5" d="M49.1,15.6c-0.5-0.8-1-2.2-0.8-2.6c0-0.1,0-0.3,0.5-0.6c0.2-0.2,0.4-0.3,0.7-0.7c0.2-0.3-0.1-0.4-0.3-0.6
		l-0.2,0l-0.2-0.1l-0.2,0l-0.1,0l-0.1,0l-0.3,0c-0.1-0.1-0.3-0.1-0.4,0l-0.2,0l-0.2,0.1c0,0-0.1,0-0.2,0c-0.4,0-0.5,0.3-0.5,0.4
		l-0.3,0.1l-0.1,0.1L46,11.6l-0.1,0.2c0,0.1,0,0.1-0.1,0.2c-0.1,0.1-0.1,0.1-0.1,0.1l-0.1,0.1l0,0.1l0,0.1c0,0,0.5,0.3,1.5,0.4
		c0.8,0.1,0.8,0.6,1,1c0.3,0.7,0.1,0.3,0.7,1.6C48.9,15.6,49.5,16.3,49.1,15.6"/>
	<path class="st5" d="M50.3,20.6c-0.6-0.5-1.8-1-2.2-0.9c-0.1,0-0.2,0-0.6,0.4c-0.2,0.2-0.3,0.3-0.7,0.6c-0.3,0.2-0.3-0.1-0.5-0.3
		l0-0.2l-0.1-0.2l0-0.2l0-0.1l0-0.1l0-0.2c0-0.1,0-0.3,0.1-0.3l0.1-0.1l0.1-0.1l0-0.2c0-0.3,0.3-0.4,0.4-0.4l0.1-0.2l0.1-0.1
		l0.1-0.1l0.2-0.1l0.2,0l0.1,0l0.1,0l0.1,0l0.1,0c0,0,0.3,0.4,0.2,1.3c0,0.7,0.5,0.8,0.7,0.9c0.6,0.3,0.2,0.1,1.3,0.8
		C50.3,20.5,50.9,21.1,50.3,20.6"/>
	<path class="st5" d="M43.7,13.3c-0.5-0.1-1.6-0.2-1.8,0c0,0-0.1,0.1-0.2,0.4c-0.1,0.1-0.1,0.3-0.3,0.5c-0.1,0.2-0.2,0-0.4-0.1
		l0-0.1l-0.1-0.1l-0.1-0.1l0,0l0-0.1l-0.1-0.1l-0.1-0.2v-0.1l0-0.1l0-0.1c-0.1-0.2,0.1-0.3,0.1-0.3l0-0.2l0-0.1l0-0.1l0.1-0.1
		l0.1-0.1l0.1-0.1l0,0l0.1,0l0.1,0c0,0,0.3,0.2,0.5,0.7c0.2,0.4,0.5,0.3,0.7,0.4C42.8,13.1,42.8,13.1,43.7,13.3
		C43.7,13.2,44.2,13.4,43.7,13.3"/>
	<path class="st5" d="M42.3,22.4c-0.6,0.4-0.9,0.8-0.9,1.2c0,0.1-0.1,0.2,0.2,0.6c0.1,0.2,0.3,0.4,0.3,0.8c0.1,0.3-0.2,0.3-0.5,0.3
		l-0.2,0l-0.2,0l-0.2,0h-0.1l-0.1-0.1l-0.2-0.1c-0.1,0-0.3,0-0.3-0.1L40.1,25L40,24.9l-0.2-0.1c-0.3-0.1-0.3-0.4-0.3-0.5l-0.2-0.2
		L39.3,24l-0.1-0.1l0-0.2c0-0.1,0.1-0.1,0-0.2c-0.1-0.1,0-0.1,0-0.1l0-0.1l0-0.1l0-0.1c0,0,0.5-0.1,1.3,0.2c0.7,0.2,0.9-0.2,1.1-0.5
		c0.5-0.4,0.3-0.3,0.6-0.5C42.2,22.3,42.5,22.2,42.3,22.4"/>
	<path class="st6" d="M60.7,20.8c-1-0.6-2.4,2.2-1.6,2.7C59.8,23.8,62,21.5,60.7,20.8"/>
	<path class="st6" d="M58.6,11.6c-1.6-0.7-2.8,3.4-1.5,3.9C58,16,60.7,12.6,58.6,11.6"/>
	<path class="st6" d="M50.9,12.8c-1.6,0.6-0.5,4.1,1.2,3.6C53.6,15.9,52.9,12,50.9,12.8"/>
	<path class="st6" d="M58.7,35.9c-3.7-2.9-1.4-9.2,2.4-12.2c0.2-0.2-2.3,0.5-3.6,2.6C57.3,26.7,58,22,58.8,21c0.8-1-2.1,0.6-2.9,6.2
		c-0.2,1.2-1.3-5.3,4.6-11.6c0.8-0.9-3.5,1.6-4.5,4c-0.7,1.7-0.5-7.2,1-12.3c0.5-1.7-6,15-2.3,28.7C54.9,36.1,59.2,36.3,58.7,35.9"
		/>
	<path class="st6" d="M53.8,35.8c-1-2.6-2.9-14.8,0.2-21.5c0.8-1.7-1.5,1.8-2.3,6.2c-0.3,1.9-0.2-4.2-6.5-6.8
		c-1.7-0.7,7.6,3.2,5.7,13.6c0,0-0.2,2.5-2.5,8.8C48.3,36.3,54.2,36.9,53.8,35.8"/>
	<path class="st7" d="M66.2,13.2c0.9-0.9,2.8-2,3.5-1.9c0.1,0,0.4-0.1,1,0.5c0.3,0.3,0.6,0.5,1.3,0.8c0.6,0.2,0.5-0.2,0.7-0.6l0-0.3
		l0.1-0.3l0-0.3l0-0.2l-0.1-0.2c0-0.1-0.1-0.3,0-0.4c0.1-0.2,0-0.4-0.1-0.5l-0.1-0.2l-0.2-0.2c-0.1-0.1-0.1-0.1-0.1-0.3
		c-0.1-0.5-0.6-0.6-0.7-0.6c-0.1,0-0.3-0.2-0.3-0.3C71.3,8,71.1,8,71.1,8c0,0-0.1,0-0.1-0.1c0-0.1-0.2-0.1-0.3-0.1s-0.1,0.1-0.3,0
		c-0.1-0.1-0.2-0.1-0.2-0.1l-0.2,0h-0.2l-0.2,0c0,0-0.4,0.7-0.1,2.2c0.2,1.2-0.7,1.3-1.1,1.7c-0.9,0.7-0.4,0.2-2.1,1.5
		C66.1,13,65.3,14.1,66.2,13.2"/>
	<path class="st0" d="M23.3,37.1c5.2-0.5,10.5-0.9,15.7-1.1c2.6-0.1,5.3-0.2,7.9-0.3c2.6-0.1,5.3-0.1,7.9-0.1c2.6,0,5.3,0,7.9,0.1
		c2.6,0.1,5.3,0.2,7.9,0.3c5.2,0.3,10.5,0.6,15.7,1.1l-15.8-0.4c-5.2-0.1-10.5-0.2-15.7-0.2c-2.6,0-5.2,0-7.9,0.1
		c-1.3,0-2.6,0-3.9,0.1L39,36.8L23.3,37.1z"/>
	<path class="st2" d="M51.2,23.7c0,0-0.1-0.2-2.7,0.2c-0.2,0-0.9-0.3-1.3-0.4c-0.3-0.1-0.2,0.2-0.2,0.3l0,0.1l0,0.1L47,24
		c-0.1,0.1-0.2,0.6,0.3,0.8c0.1,0.1,0.1,0.1,0.1,0.1c0.1,0,0.3,0.1,0.3,0c0.2-0.4,0.5-0.8,0.9-0.9c1.1-0.3,2-0.3,2.4-0.2
		c0.1,0-0.2,0.1-0.3,0.2c-0.6,0.4-1.5,1.1-1.8,1.4c-0.4,0.3-1.1,0-1.2-0.2c-0.2-0.1-0.7-0.5-0.8-0.3c0,0-0.4,0.1-0.1,0.4l-0.1,0.1
		l0,0.2l0,0.2l0,0.1l0,0.2c0.1,0,0,0.3,0,0.4c0.1,0.1,0.2,0.1,0.2,0.1l0.1,0.3c0,0.1,0.3,0.5,0.5,0.3c0.1-0.1,0,0.1,0.1,0.1l0.2,0
		l0.1,0.1c0,0,0.1,0.1,0.2,0c0.1-0.1,0.1,0.1,0.2,0.1c0.1,0,0.1-0.1,0.2-0.2c0.1-0.1,0.2,0.2,0.3,0c0.3-0.4-0.6-1.3-0.2-2
		c0.1-0.1,1.2-1.1,1.9-1.5C51,23.8,51.2,23.8,51.2,23.7"/>
	<path class="st2" d="M48.6,16.6c0,0,0.1-0.3-2-1.5c-0.2-0.1-0.5-0.7-0.7-1.1c-0.1-0.2-0.3,0-0.3,0.1l0,0.1l-0.1,0.1l-0.1,0
		c-0.1,0-0.5,0.3-0.3,0.7c0.1,0.1,0,0.1,0,0.2c0,0.1,0.1,0.2,0.2,0.2c0.4-0.2,0.9-0.3,1.2-0.2c0.9,0.4,1.6,1,1.8,1.3
		c0.1,0.1-0.2,0-0.3,0c-0.7-0.1-1.8-0.1-2.1-0.1c-0.5,0-0.7-0.7-0.8-0.8c-0.1-0.2-0.2-0.8-0.4-0.7c0,0-0.3-0.2-0.3,0.2
		c0,0.1-0.1,0-0.1,0l-0.1,0.1c0,0.1-0.1,0.1-0.1,0.2c0,0.1,0,0.1-0.1,0.1l-0.1,0.1c0,0.1-0.2,0.2-0.2,0.3c0,0.1,0.1,0.2,0.1,0.2
		l-0.1,0.3c-0.1,0.1,0,0.5,0.2,0.6c0.1,0,0,0.1,0,0.2l0.1,0.1l0,0.1c0,0,0,0.1,0.2,0.1c0.1,0,0,0.2,0.1,0.2c0.1,0.1,0.1,0,0.2,0
		c0.1,0,0,0.3,0.2,0.2c0.4-0.1,0.4-1.3,1.1-1.6c0.1-0.1,1.5,0,2.3,0.1C48.4,16.6,48.5,16.7,48.6,16.6"/>
	<path class="st8" d="M63.9,20.1c0,0,0.1-0.4,3.9-0.9c0.3,0,1.1-0.8,1.7-1.2c0.4-0.3,0.4,0.2,0.4,0.3l0,0.1l0,0.2l0.1,0.1
		c0.1,0.1,0.5,0.8,0,1.2c-0.2,0.1,0,0.1-0.1,0.2c-0.1,0.1-0.3,0.3-0.5,0.1c-0.5-0.5-1.2-1-1.7-1c-1.6,0.1-2.9,0.5-3.5,0.7
		c-0.1,0.1,0.3,0.1,0.5,0.2c1.1,0.3,2.7,0.9,3.2,1.2c0.7,0.3,1.5-0.5,1.7-0.8c0.2-0.2,0.7-1,1-0.7c0,0,0.5-0.1,0.2,0.5
		c-0.1,0.1,0.1,0.1,0.2,0.1c0.1,0,0.2,0.2,0.1,0.3c-0.1,0.1,0.1,0.1,0,0.3c-0.1,0.2,0,0.1,0,0.2l0,0.2c-0.1,0.1,0.2,0.4,0.1,0.6
		c-0.1,0.2-0.2,0.2-0.3,0.3c-0.1,0.1,0,0.4,0,0.5c0.1,0.2-0.3,0.8-0.6,0.7c-0.2-0.1,0,0.2-0.1,0.2c-0.1,0.1-0.1,0.1-0.2,0.2
		C70,24,70,24.1,70,24.2c0,0-0.1,0.2-0.3,0.1c-0.2-0.1-0.1,0.2-0.3,0.2c-0.2,0-0.2-0.1-0.3-0.1c-0.1,0-0.1,0.4-0.4,0.2
		c-0.5-0.4,0.3-2.1-0.6-3c-0.2-0.2-2.2-1-3.4-1.3C64.3,20.2,64,20.3,63.9,20.1"/>
	<path class="st1" d="M58.9,20.3c0,0-0.2-0.1,0.3-2.4c0-0.2-0.2-0.8-0.3-1.2c-0.1-0.3,0.2-0.2,0.3-0.1l0.1,0l0.1,0l0.1,0
		c0.1-0.1,0.6-0.1,0.7,0.3c0,0.1,0.1,0.1,0.1,0.1c0,0,0.1,0.2,0,0.3c-0.4,0.2-0.8,0.4-0.9,0.7c-0.3,0.9-0.4,1.7-0.4,2.1
		c0,0.1,0.1-0.1,0.2-0.2c0.4-0.5,1.1-1.3,1.4-1.5c0.3-0.3,0-0.9-0.1-1.1c-0.1-0.2-0.4-0.6-0.2-0.7c0,0,0.1-0.3,0.3,0l0.1-0.1l0.2,0
		l0.2,0l0.1,0l0.1,0.1c0,0,0.3,0,0.4,0.1c0.1,0.1,0.1,0.2,0.1,0.2l0.3,0.1c0.1,0,0.4,0.3,0.2,0.5l0.1,0.1l0,0.2l0.1,0.1
		c0,0,0.1,0.1,0,0.2c-0.1,0.1,0.1,0.1,0.1,0.2c0,0.1-0.1,0.1-0.2,0.1c-0.1,0.1,0.2,0.2,0,0.3c-0.3,0.2-1.1-0.6-1.8-0.4
		c-0.1,0-1,1-1.5,1.6C59,20.1,59,20.3,58.9,20.3"/>
	<path class="st2" d="M61.5,23.8c0.3,0.1,1.2,0.4,2.1,0.6c0.2,0,0.6,0.5,0.9,0.8c0.2,0.2,0.3-0.1,0.2-0.2l0-0.1l0-0.1l0.1,0
		c0.1,0,0.3-0.4,0.1-0.7l0-0.1c0-0.1-0.2-0.2-0.3-0.1c-0.3,0.2-0.7,0.5-1,0.5C63,24.2,62,24,61.5,23.8L61.5,23.8z"/>
	<path class="st2" d="M61.2,22.9c0.4-0.4-0.2,0.2,0.8-0.8c0.2-0.2,0.4-1.2,0.6-1.8c0.1-0.4,0.4-0.1,0.4,0c0,0,0,0.1,0.1,0.1
		c0.1,0,0.1,0.1,0.1,0.1l0.1,0c0.1,0,0.8,0.3,0.7,0.9c0,0.2,0,0.1,0.1,0.2c0,0.1-0.1,0.4-0.3,0.4c-0.6-0.1-1.4-0.1-1.7,0.2
		c-0.5,0.4-0.2,0.2-0.7,0.7L61.2,22.9z"/>
	<path class="st2" d="M65.1,11.3c0.3-0.4-0.1,0.2,0.6-0.9c0.1-0.2,0.1-1.2,0.2-1.9c0-0.4,0.4-0.2,0.4-0.1c0,0,0,0.1,0.1,0.1
		c0.1,0,0.1,0,0.1,0.1l0.1,0c0.1-0.1,0.9,0.1,0.9,0.8c0,0.2,0.1,0.1,0.1,0.2c0,0.1,0,0.4-0.2,0.4c-0.6,0.1-1.4,0.2-1.6,0.6
		c-0.4,0.4-0.2,0.3-0.5,0.8L65.1,11.3z"/>
	<path class="st3" d="M42.4,17.9c-0.3-0.4,0.2,0.2-0.7-0.8c-0.2-0.2-0.3-1.2-0.5-1.9c-0.1-0.4-0.4-0.1-0.4,0c0,0,0,0.1-0.1,0.1
		c-0.1,0-0.1,0.1-0.1,0.1l-0.1,0c-0.1,0-0.8,0.2-0.7,0.9c0,0.2-0.1,0.1-0.1,0.2c0,0.1,0,0.4,0.3,0.4c0.6,0,1.4,0,1.7,0.3
		c0.7,0.7,0.2,0.2,0.7,0.7L42.4,17.9z"/>
	<path class="st9" d="M43.5,12c0,0-2.1-1.5-2.4-1.9c0-0.1-0.4-0.7,0.2-1.6C42,7.7,42,7,41.9,6.9c-0.1-0.3-0.3-0.2-0.3-0.2
		c0,0-0.2-0.2-0.5,0.1c-0.3,0.2-0.4-0.1-0.4-0.1s-0.1-0.2-0.3,0.1c-0.1,0.2-0.1-0.3-0.5-0.1c-0.1,0.1-0.1-0.2-0.4,0.1
		c-0.1,0.1-0.3,0-0.3,0c-0.1,0-0.2,0-0.2,0.2c-0.1,0.2-0.6,0-0.6,0.5c0,0.1,0,0.1,0,0.3c0,0.2,0.7,0.8,0.9,1.1
		C39.5,9,38,7.5,37.7,8.5c-0.1,0.3-0.1,0.2-0.2,0.3c-0.1,0.2,0,0.2,0,0.4l-0.1,0.1c-0.1,0.1,0,0.1,0,0.3l-0.1,0.2
		c-0.1,0,0.1,0.2,0.1,0.3c0,0.1-0.3,0.2-0.3,0.3c0,0.1,0,0.3,0.2,0.4s0,0.2,0.2,0.3c0.1,0,0.1,0.1,0.1,0.2c0,0.1,0,0.2,0.1,0.2
		c0.1,0,0,0.2,0.1,0.3c0.1,0.1,0.4,0.2,1.1-0.4c0.7-0.6,1.7-1.2,2.2-1c0.5,0.3,2.5,1.7,2.5,1.7L43.5,12z"/>
	<path class="st1" d="M65.2,16c0,0,1.8-0.5,2.1-0.5c0.1,0,0.6,0.1,0.9,0.8c0.3,0.6,0.6,0.9,0.7,0.9c0.2,0.1,0.2-0.1,0.2-0.1
		c0,0,0.2,0,0.2-0.3c0-0.2,0.2-0.2,0.2-0.2s0.2,0,0.1-0.2c-0.1-0.1,0.2,0,0.3-0.2c0-0.1,0.1,0,0.1-0.3c0-0.1,0.1-0.2,0.1-0.2
		c0,0,0.1-0.1,0-0.2c-0.1-0.1,0.3-0.3,0-0.5L69.9,15c-0.1-0.1-0.8,0-1,0c-0.1,0,1.4-0.2,0.9-0.8c-0.1-0.2-0.1-0.2-0.1-0.2
		c0-0.1-0.2-0.1-0.2-0.1l0-0.1l-0.2-0.1l-0.1-0.1l-0.2,0l-0.1-0.3c-0.1-0.1-0.2-0.1-0.3,0c-0.1,0-0.1-0.1-0.3,0l-0.1,0l-0.2,0
		c-0.1,0-0.1-0.1-0.2-0.1c-0.1,0-0.3,0.1-0.2,0.7c0.1,0.6,0,1.4-0.4,1.5C66.9,15.4,65.1,15.9,65.2,16L65.2,16z"/>
	<path class="st2" d="M63.8,7.5c0,0,1-1.1,1.4-1.2c0.3-0.1,0.5-0.2,1.3,0.3C67.4,7,68,6.8,68.1,6.7c0.2-0.1,0.2-0.2,0.1-0.2
		c0,0,0.2-0.1-0.1-0.4c-0.2-0.2,0-0.3,0-0.3s0.2-0.1-0.1-0.2c-0.2-0.1,0.2-0.1,0.1-0.5C68.2,5,68.4,5,68.1,4.7c-0.1-0.1,0-0.2,0-0.3
		s0-0.2-0.1-0.2c-0.1,0,0-0.5-0.4-0.5c-0.1,0-0.1,0-0.2,0c-0.2,0-0.7,0.6-1,0.8c-0.1,0.1,1.2-1.3,0.2-1.5C66.2,3.1,66.3,3,66.2,3
		C66,2.8,66,3,65.9,3l-0.1-0.1l-0.2,0l-0.2-0.1c0-0.1-0.1,0.1-0.2,0.1c-0.1,0-0.2-0.2-0.3-0.2c-0.1,0-0.2,0-0.3,0.2
		c-0.1,0.1-0.2,0-0.3,0.2c0,0.1-0.1,0.1-0.2,0.1c-0.1,0-0.2,0-0.2,0.1c0,0.1-0.1,0-0.2,0.1c-0.1,0-0.2,0.4,0.4,0.9
		c0.6,0.6,1.2,1.4,0.9,1.9C64.7,6.6,63.7,7.5,63.8,7.5L63.8,7.5z"/>
	<path class="st3" d="M38.8,16.3c0,0-0.2-0.1-0.4-0.3c0,0-0.3-0.4,0-1.1c0.3-0.6,0.2-1.1,0.2-1.2c-0.1-0.2-0.2-0.1-0.2-0.1
		c0,0-0.1-0.1-0.3,0.1c-0.2,0.2-0.2,0-0.2,0s-0.1-0.1-0.2,0.1c-0.1,0.1-0.1-0.2-0.4,0c-0.1,0-0.1-0.1-0.2,0.1l-0.2,0
		c0,0-0.1,0-0.1,0.1c0,0.1-0.4,0-0.3,0.4c0,0.1,0,0.1,0,0.2c0,0.2,0.5,0.5,0.7,0.7c0.1,0.1-1.1-0.8-1.2-0.1c0,0.2,0,0.2-0.1,0.2
		c-0.1,0.1,0.1,0.2,0,0.2l-0.1,0.1l0,0.2l-0.1,0.1l0.1,0.2l-0.2,0.2c0,0.1,0.1,0.2,0.2,0.2c0.1,0.1,0,0.1,0.2,0.2l0.1,0.1l0.1,0.1
		l0.1,0.2c0,0.1,0.3,0.1,0.7-0.3c0.4-0.5,1-1,1.4-0.8C38.7,16.3,38.8,16.4,38.8,16.3L38.8,16.3z"/>
	<path class="st1" d="M49.4,9.1c0,0-0.2-0.2-0.3-0.5c0-0.1-0.1-0.5,0.5-1c0.5-0.5,0.7-0.9,0.7-1c0-0.2-0.1-0.2-0.1-0.2
		c0,0-0.1-0.2-0.3-0.1c-0.2,0.1-0.2-0.1-0.2-0.1s0-0.2-0.2,0c-0.1,0.1,0-0.2-0.3-0.2c-0.1,0,0-0.1-0.3,0l-0.2,0c0,0-0.1,0-0.2,0.1
		C48.4,6.2,48,6,48,6.3c0,0.1,0,0.1,0,0.2c-0.1,0.2,0.3,0.7,0.4,0.9c0,0.1-0.6-1.2-1.1-0.6C47.1,7,47.1,7,47.1,7
		c-0.1,0.1,0,0.2-0.1,0.2l-0.1,0.1l0,0.2l-0.1,0.1l0,0.2l-0.2,0.1c0,0.1,0,0.2,0,0.3c0.1,0.1-0.1,0.1,0.1,0.3l0,0.1l0,0.2l0,0.2
		c0,0.1,0.2,0.2,0.8,0c0.6-0.3,1.4-0.5,1.6-0.2S49.5,9.2,49.4,9.1L49.4,9.1z"/>
	<path class="st1" d="M45.1,21.1c0,0-0.2-0.1-0.4-0.4c0,0-0.3-0.5,0.1-1.1c0.4-0.6,0.3-1,0.3-1.1c-0.1-0.2-0.2-0.1-0.2-0.1
		c0,0-0.1-0.1-0.3,0.1c-0.2,0.1-0.2,0-0.2,0s-0.1-0.1-0.2,0.1c-0.1,0.1-0.1-0.2-0.3-0.1c-0.1,0-0.1-0.1-0.2,0.1l-0.2,0
		c0,0-0.1,0-0.2,0.1c0,0.1-0.4,0-0.4,0.3c0,0.1,0,0.1,0,0.2c0,0.2,0.5,0.6,0.6,0.8c0.1,0.1-1-0.9-1.1-0.2c-0.1,0.2-0.1,0.2-0.1,0.2
		c-0.1,0.1,0,0.2,0,0.2l-0.1,0.1l0,0.2l-0.1,0.1l0.1,0.2L42.1,21c0,0.1,0,0.2,0.1,0.2c0.1,0.1,0,0.1,0.1,0.2l0,0.1l0.1,0.1l0.1,0.2
		c0,0.1,0.3,0.2,0.7-0.3c0.4-0.4,1.1-0.8,1.4-0.6C45,21.2,45.1,21.2,45.1,21.1L45.1,21.1z"/>
	<path class="st3" d="M61.3,11.6c0,0,0.1-0.2,0.4-0.5c0.1,0,0.5-0.3,1.3,0.1c0.7,0.4,1.2,0.4,1.4,0.3c0.2-0.1,0.1-0.2,0.1-0.2
		c0,0,0.1-0.1-0.1-0.4c-0.2-0.2,0-0.3,0-0.3s0.2-0.1-0.1-0.2c-0.2-0.1,0.2-0.1,0-0.4c0-0.1,0.1-0.1-0.1-0.3c-0.1-0.1,0-0.2,0-0.2
		c0-0.1,0-0.1-0.1-0.2c-0.1,0,0-0.5-0.4-0.4c-0.1,0-0.1,0-0.2,0c-0.2,0-0.6,0.6-0.9,0.8c-0.1,0.1,1.1-1.2,0.2-1.4
		c-0.3-0.1-0.2-0.1-0.3-0.1c-0.1-0.1-0.2,0.1-0.3,0l-0.1-0.1l-0.2,0l-0.1-0.1c0-0.1-0.1,0.1-0.2,0.1c-0.1,0-0.2-0.2-0.3-0.2
		c-0.1,0-0.2,0-0.3,0.2c-0.1,0.1-0.2,0-0.3,0.2c0,0.1-0.1,0.1-0.2,0.1c-0.1,0-0.1,0-0.2,0.1l-0.2,0.1c-0.1,0-0.2,0.3,0.3,0.8
		c0.5,0.5,1,1.3,0.8,1.7C61.2,11.4,61.2,11.6,61.3,11.6L61.3,11.6z"/>
	<path class="st2" d="M52.7,3.7c0,0,0-0.2,0.1-0.5c0-0.1,0.2-0.5,1-0.6c0.7-0.1,1-0.4,1.1-0.5c0.1-0.2,0-0.2,0-0.2
		c0,0,0-0.2-0.3-0.2c-0.2-0.1-0.1-0.2-0.1-0.2s0.1-0.1-0.2-0.1c-0.1,0,0.1-0.2-0.2-0.3c-0.1,0,0-0.1-0.2-0.1c-0.1,0-0.1-0.1-0.2-0.2
		c0,0-0.1-0.1-0.2-0.1c-0.1,0-0.3-0.3-0.5-0.1L53,0.7c-0.1,0.1-0.2,0.7-0.2,1c0,0.1,0.2-1.4-0.6-1.1c-0.2,0.1-0.2,0.1-0.3,0
		c-0.1,0-0.1,0.1-0.2,0.2l-0.1,0L51.5,1l-0.1,0l-0.1,0.2l-0.3,0c-0.1,0-0.1,0.1-0.1,0.3c0,0.1-0.1,0.1-0.1,0.2l-0.1,0.1L50.6,2
		l-0.1,0.2c0,0.1,0,0.3,0.7,0.4c0.6,0.1,1.4,0.4,1.4,0.7C52.6,3.6,52.7,3.8,52.7,3.7L52.7,3.7z"/>
	<path class="st3" d="M64.1,19.1c0,0,0-0.2,0.2-0.3c0,0,0.3-0.3,0.8-0.1c0.5,0.2,0.8,0.1,0.9,0c0.1-0.1,0.1-0.1,0.1-0.1
		c0,0,0.1-0.1-0.1-0.2c-0.1-0.1,0-0.2,0-0.2s0.1-0.1-0.1-0.1c-0.1,0,0.1-0.1,0-0.3c0,0,0.1-0.1-0.1-0.2l0-0.1l-0.1-0.1
		c-0.1,0-0.1-0.3-0.3-0.2l-0.1,0c-0.1,0-0.3,0.4-0.5,0.6c0,0.1,0.5-0.8,0-0.9c-0.2,0-0.1,0-0.2-0.1c-0.1,0-0.1,0.1-0.2,0l-0.1,0
		l-0.1,0l-0.1,0L64,17l-0.2-0.1L63.7,17c0,0.1-0.1,0-0.1,0.1l-0.1,0.1l-0.1,0.1l-0.1,0.1c0,0-0.1,0.2,0.3,0.5
		c0.4,0.3,0.8,0.7,0.7,0.9C64.1,19,64.1,19.1,64.1,19.1L64.1,19.1z"/>
	<path class="st3" d="M70.3,17.3c0,0,0.3,0,0.6,0.1c0.1,0,0.6,0.3,0.6,1.2c0,0.9,0.3,1.3,0.4,1.4c0.2,0.2,0.3,0,0.3,0
		c0,0,0.2,0,0.3-0.3c0.1-0.3,0.3-0.1,0.3-0.1s0.2,0.1,0.1-0.2c0-0.2,0.2,0.1,0.4-0.2c0.1-0.1,0.1,0,0.2-0.3c0-0.1,0.1-0.2,0.2-0.2
		c0,0,0.1-0.1,0.1-0.2c0-0.1,0.4-0.3,0.1-0.6c-0.1-0.1-0.1-0.1-0.1-0.2c-0.1-0.2-0.8-0.2-1.1-0.3c-0.1,0,1.6,0.2,1.3-0.7
		c-0.1-0.3,0-0.2,0-0.3c0-0.2-0.1-0.1-0.2-0.2l0-0.2l-0.1-0.2l0-0.2l-0.2-0.1c-0.1-0.1,0.1-0.3,0-0.4c0-0.1-0.1-0.2-0.3-0.1
		c-0.1,0-0.1-0.2-0.3-0.1l-0.1-0.1l-0.2-0.1c-0.1,0-0.1-0.1-0.2-0.2c-0.1,0-0.4,0-0.5,0.8c-0.2,0.8-0.6,1.7-1,1.8
		C70.4,17.2,70.2,17.2,70.3,17.3L70.3,17.3z"/>
	<path class="st10" d="M47.3,5.7c0,0-0.9-1.1-0.2-1.6c0.8-0.4,0.8-0.4,1.3-0.6c0.5-0.2,0.8-0.4,0.5-0.8c-0.1-0.2-0.2-0.1-0.4-0.3
		c-0.1-0.2-0.3-0.2-0.4-0.2c-0.1,0,0.1-0.2-0.5-0.5c-0.1-0.1-0.1-0.2-0.3-0.1c-0.2,0.1-0.2,0-0.5,0.1c-0.1,0.1-0.1-0.5-0.8-0.1
		c-0.2,0.1-0.1,0.1-0.3,0.1c-0.1,0-0.1,0.1-0.2,0.1c-0.2,0-0.4,0.2-0.5,0.4s-0.7,0.3-0.7,0.5c0,0.2,0.2,0.4,0.2,0.4
		c0,0-0.5-0.1-0.5,0.2c0,0.1-0.1,0.2-0.2,0.4c0,0.1,0,0.1,0,0.2l-0.1,0.3c-0.1,0.1-0.1,0.2,0,0.4c0,0.1,0,0.1-0.1,0.2
		c-0.1,0.1-0.1,0.3-0.1,0.5c0,0.2,0.1,0.2,0.1,0.3c0,0.1,0.1,0.3,0.5,0.2c0.5-0.2,1.7-1,2-1.2C46.3,4.7,46.9,5,47.3,5.7L47.3,5.7"/>
	<path class="st5" d="M53.5,10c0,0-0.3-0.7,0.3-0.8c0.6-0.1,0.6-0.1,1-0.1c0.4,0,0.7-0.1,0.6-0.4c-0.1-0.1-0.2-0.1-0.2-0.3
		c-0.1-0.1-0.1-0.2-0.2-0.2c-0.1,0,0.1-0.1-0.2-0.4c-0.1-0.1,0-0.1-0.2-0.2c-0.2,0-0.1-0.1-0.4,0c-0.1,0,0-0.4-0.5-0.2
		c-0.2,0-0.1,0-0.2,0c-0.1,0-0.1,0.1-0.2,0c-0.1-0.1-0.3,0.1-0.4,0.1c-0.1,0.1-0.6,0-0.6,0.2c-0.1,0.1,0,0.3,0,0.3
		c0,0-0.3-0.2-0.4,0c0,0.1-0.1,0.1-0.2,0.2l0,0.1l-0.2,0.2c-0.1,0-0.1,0.1-0.1,0.3L51.2,9C51.1,9,51,9.2,51,9.3c0,0.1,0,0.1,0,0.2
		c0,0,0,0.2,0.3,0.2c0.4,0,1.4-0.3,1.6-0.3C53.1,9.4,53.4,9.4,53.5,10L53.5,10"/>
	<path class="st11" d="M61,15.2c0,0,1.4-1.2,1.7-1c0.3,0.2,0.5,0.5,0.7,0.8c0.2,0.3,0.4,0.5,0.6,0.2c0.1-0.1,0-0.2,0.1-0.3
		c0.1-0.1,0.1-0.2,0.1-0.3c0-0.1,0.2,0,0.3-0.4c0-0.1,0.1-0.1,0-0.2c-0.1-0.2,0-0.1-0.2-0.3c-0.1-0.1,0.3-0.1-0.1-0.6
		c-0.1-0.1-0.1-0.1-0.1-0.2c0-0.1-0.1,0-0.1-0.2c0-0.1-0.2-0.3-0.3-0.3c-0.1,0-0.3-0.5-0.4-0.4c-0.1,0-0.2,0.2-0.3,0.2
		c0,0,0-0.4-0.2-0.3c-0.1,0-0.2,0-0.3-0.1l-0.1,0l-0.2,0c-0.1,0-0.2,0-0.3,0.1l-0.2,0c-0.1,0-0.2,0-0.3,0c-0.1,0-0.1,0.1-0.2,0.1
		c0,0-0.2,0.1,0,0.3c0.2,0.3,0.9,1,1.1,1.2C62.4,13.9,61.4,14.8,61,15.2L61,15.2"/>
	<path class="st2" d="M59.1,7.4c0,0,0.7-0.7,2.2-0.2c0.2,0.1,0.2-0.2,0.1-0.3c-0.1-0.1,0.1-0.4-0.2-0.8c-0.1-0.1,0.1-0.5-0.6-0.7
		c-0.1,0,0-0.2-0.3-0.3c-0.3,0-0.2-0.3-0.5-0.1c-0.1,0.1-0.1-0.3-0.5,0c-0.3,0.2-0.7-0.1-0.4,0.5C59.3,6.2,59.3,7,59.1,7.4
		C58.8,7.6,59.1,7.4,59.1,7.4"/>
	<path class="st2" d="M46.2,22.4c0,0-0.7,0.2-1.5-0.6c-0.1-0.1-0.2,0-0.2,0.1c0,0.1-0.2,0.3-0.1,0.6c0,0.1-0.3,0.3,0.1,0.7
		c0,0-0.1,0.2,0.1,0.3c0.2,0.1,0,0.3,0.3,0.2c0.1,0,0,0.3,0.4,0.2c0.3,0,0.5,0.3,0.4-0.2C45.6,23.2,45.9,22.6,46.2,22.4
		C46.5,22.4,46.2,22.4,46.2,22.4"/>
	<path class="st12" d="M57.4,6.3c0,0,1.4-3.4,1.9-3.4c0.5,0,0.9,0.4,1.3,0.7c0.4,0.3,0.8,0.4,0.9,0c0-0.2-0.1-0.2,0-0.5
		c0.1-0.2,0-0.3-0.1-0.4s0.2-0.1,0.1-0.6c0-0.1,0.1-0.2-0.1-0.3c-0.2-0.2-0.1-0.2-0.4-0.3c-0.1-0.1,0.3-0.4-0.4-0.7
		c-0.2-0.1-0.1-0.1-0.3-0.2c-0.1-0.1-0.1,0-0.2-0.1c-0.1-0.1-0.4-0.2-0.6-0.2c-0.2,0-0.7-0.4-0.8-0.3c-0.2,0.1-0.2,0.4-0.2,0.4
		c0,0-0.2-0.4-0.5-0.3c-0.1,0.1-0.3,0-0.4,0.1c-0.1,0-0.1,0-0.1,0.1c-0.1,0.1-0.2,0.1-0.3,0.1c-0.1,0-0.2,0.1-0.3,0.2
		c0,0.1-0.1,0.1-0.2,0.1c-0.1,0-0.3,0.1-0.4,0.2c-0.1,0.1-0.1,0.2-0.2,0.3c0,0-0.1,0.2,0.1,0.4c0.7,0.5,1.8,0.7,2.1,0.9
		C58.8,2.8,57.7,5.7,57.4,6.3L57.4,6.3"/>
	<path class="st2" d="M56.2,7.9c0,0,0.2-0.2-0.5-2.7c-0.1-0.2,0.2-0.9,0.3-1.4c0.1-0.3-0.3-0.2-0.3-0.1l-0.1,0l-0.1,0l-0.1-0.1
		c-0.1-0.1-0.6-0.1-0.8,0.4c0,0.1-0.1,0.1-0.1,0.1c0,0.1-0.1,0.3,0.1,0.3c0.4,0.2,1,0.4,1.1,0.8c0.4,1,0.6,2,0.5,2.4
		c0,0.1-0.2-0.2-0.3-0.2c-0.5-0.6-1.4-1.4-1.6-1.6c-0.4-0.3-0.1-1.1,0-1.3c0.1-0.2,0.4-0.7,0.2-0.8c0,0-0.1-0.3-0.4,0l-0.1-0.1
		l-0.2,0c0,0.1-0.1,0-0.2,0.1c-0.1,0.1-0.1,0.1-0.1,0.1l-0.2,0.1c0,0.1-0.3,0-0.4,0.1c-0.1,0.1-0.1,0.2-0.1,0.3l-0.3,0.1
		c-0.1,0-0.4,0.4-0.3,0.6C52.2,5,52,4.9,52,5l0,0.2l-0.1,0.1c0,0-0.1,0.1,0.1,0.2c0.1,0.1-0.1,0.1-0.1,0.3C51.9,6,52,5.9,52.1,6
		c0.1,0.1-0.2,0.2,0,0.3c0.4,0.2,1.3-0.8,2-0.5c0.1,0.1,1.3,1.1,1.8,1.7C56,7.8,56.1,7.9,56.2,7.9"/>
	<polygon class="st13" points="78.9,25.6 79.1,25.6 79.1,25.6 79.1,25.6 79.1,25.6 79.1,25.6 79.2,25.5 79.2,25.5 79.1,25.5 
		79,25.6 78.9,25.6 78.9,25.6 78.8,25.6 78.8,25.6 	"/>
	<polygon class="st13" points="79.8,27.4 79.7,27.5 79.7,27.5 79.6,27.5 79.5,27.5 79.5,27.5 79.6,27.6 79.8,27.6 79.8,27.7 
		79.9,27.7 80,27.6 80,27.5 80.1,27.4 80.1,27.2 80.2,27.2 80.2,27.1 80.3,27 80.1,27.1 80,27.3 79.9,27.4 79.9,27.4 79.8,27.4 	"/>
	<path class="st13" d="M84.8,25.8l0.1,0.1l0,0.1l0.1,0.1l0,0.2L85,26.7l-0.1,0l0,0.1l-0.2,0l-0.1,0l-0.1,0l-0.1,0.1L84.1,27L84,27.2
		l-0.1,0l-0.1,0l-0.1,0.1l-0.2,0l0,0.2l0,0l-0.1,0l-0.1,0.1l-0.1,0l-0.1,0l-0.2-0.1l-0.1,0.1l-0.2,0l-0.1,0l0,0.1l-0.1,0.1l-0.1-0.1
		l-0.2,0l0-0.1l0-0.1l0,0l0.1,0l0.1,0.1l0.1,0l0-0.1l-0.1,0l-0.1-0.1l0,0l-0.1-0.1l0-0.1l0,0l-0.1,0l-0.3-0.1l-0.1,0l-0.1,0
		l-0.1,0.1l-0.1,0l0,0L81.4,27l-0.1,0l-0.2,0l-0.3,0l-0.1,0.1l-0.1,0.1l0,0.1l0.2,0l0,0l0.1,0l0,0.1l-0.1,0l0,0.1l-0.1,0l0,0.1
		l0.1,0l0.2,0l0.1,0l0-0.1l0.1,0l0,0l0.1-0.1l0.1,0l0-0.1l0,0l0.1,0l0.1,0l0.2-0.1l0.1,0l0,0.1l0,0l-0.1,0l-0.1,0l-0.1,0.1l0,0.2
		l0,0l0.2,0l0.1,0l0,0.1l-0.1,0.1l-0.1,0l-0.1,0l-0.1,0l0,0l0,0.1l-0.1,0l-0.1-0.1l0,0.1l-0.1,0l0,0.1L81,28.1l0-0.1l-0.1,0l-0.1,0
		l-0.1,0l0-0.1l0-0.1l-0.1,0l0-0.1l0.1,0l0.1-0.1l0,0l0,0l-0.1,0l-0.1,0.1l-0.1,0.1l-0.1,0.1l-0.1,0l-0.1,0l-0.1,0l-0.1,0l-0.1,0
		l-0.1,0l0,0l-0.1,0l-0.2,0l-0.1,0l0,0l-0.1,0l-0.1,0l0,0.1l0,0.1l0,0.1l0,0.1l-0.2,0.1l-0.1,0L79,28.1L78.9,28l0-0.1l0-0.1l-0.1,0
		L78.7,28l0,0.1l-0.1,0.1l-0.1,0.1l-0.1,0.2l0.2,0l0,0.2l0.3,0.1l0.1,0l0.1,0l0,0l0.1-0.1l0.1,0l0.1,0l0.1,0.1l0,0l0,0l0.1,0l0.1,0
		l0,0l0,0.1l0.1,0l0,0l0.1,0l0,0l0,0.1l0.1,0.1l0,0.1l0,0.1l0,0l0,0.1l0,0.1l0,0.1l-0.1,0l0,0l0,0.1l0.1-0.1l0-0.1l0.1,0l0.1,0.1
		l0-0.1l-0.1,0l0,0l0,0l0-0.1l0-0.1l0-0.1l0-0.1l0,0l0-0.1l0.1,0l0,0l0,0.1l0,0.1l0,0.1l0,0.1l0,0.1l0.1,0.1l0,0.1l-0.1,0.3l0,0.1
		l0,0.1l0,0.1l0,0.1l0,0l0.1,0l0.1,0l0-0.1l0-0.1l0,0l0.1,0l0.1,0l0,0.1l0.1,0l0.1,0l0-0.1l0.1-0.1l0,0l0.1,0l0.1,0l0.1-0.1l0,0
		l0.1,0l0,0l0.1,0.1l0,0.1l0.2-0.1l0.1-0.1l0.1,0l0.1,0l0,0.1l-0.1,0.1l0,0l0,0l0.1,0l0,0.1l0,0.1l0,0.1l0,0.1l-0.1,0.1l0,0l-0.2,0
		l0-0.1l-0.1-0.1l0-0.1l-0.2,0l-0.1,0l-0.1,0l-0.2,0l-0.1,0l-0.1,0l-0.1,0l0,0.1l-0.1,0l0,0.2l0.1,0l0.1,0.1l0.1,0l0.1,0.2l0.2,0
		l0,0.1l0,0.2l-0.1,0.1l0,0.1l-0.2,0.1l-0.1,0l0,0l-0.2,0l0-0.1l-0.1-0.1l-0.1,0l-0.1,0l-0.1-0.1l-0.2-0.1l0-0.1l-0.1-0.2l-0.1,0
		l-0.1,0l-0.1,0l-0.1,0.1l-0.2-0.1l0-0.1L79.4,30l-0.1-0.1l-0.1-0.1l-0.1-0.1l-0.1-0.1l0-0.1l0.1-0.1l0-0.1l0.1-0.1l0-0.1l-0.2,0
		L79,29.1l-0.1,0l0-0.1l-0.1,0l-0.1-0.1l-0.1,0l-0.1,0l0-0.1l0-0.1l0,0l-0.1,0l-0.1,0.1l-0.1,0l0,0l-0.2,0.1l-0.1,0l-0.1,0.1l-0.1,0
		l-0.1,0l-0.1,0L77.3,29l-0.1,0.1l-0.1,0.1l-0.1,0.1l-0.1,0l-0.1,0.1l-0.1,0.1l-0.1,0.1l0,0.1l-0.1,0.1l0,0.1l-0.1,0.1l0,0.1l0,0.1
		l0,0.1l0,0.2l0,0.4l0,0.1l0,0.2l0.1,0.1l0,0.2l0.1,0l0.1,0.1l0.1,0.1l0.1,0.1l0.4,0.1l0.1,0.1l0.1,0l0,0.2l0.1,0.1l0.2,0.1l0,0.1
		l0,0.2l0,0.1l-0.1,0.1l-0.1,0.1l0,0.1l0.1,0.1l0,0.1l0.1,0.1l0,0.2l0,0.2l0.1,0.1l0,0.1l-0.1,0.2l-0.1,0.1l0,0.1l0,0.1l0.1,0.2
		l0.1,0.1l0.1,0.6l0.1,0.1c0,0-0.4-0.1,0.2,0.5c0.7,0.6,1.6,0.5,1.6,0.5l0.2-0.2l0.3-0.2l-0.1-0.8l0-0.3l0-0.2l0-0.2l0.2-0.1
		l0.2-0.1l0.3-0.2l0.1-0.1l0.2-0.1l0.2-0.1l0.2-0.1l0.2-0.2l0.1-0.1l0.1-0.2l0-0.1l-0.3,0l-0.3,0l-0.1,0l-0.1-0.1l0-0.2L81,32.9
		l-0.1-0.1l0-0.1l0-0.1l-0.1-0.1l0-0.2l-0.1-0.1l0-0.3l-0.1-0.1l0-0.1l0-0.2l0.1-0.2l-0.1-0.1l0-0.1l0-0.1l0-0.1l0,0l0.1,0.1l0,0
		l0.1,0l0,0.1l0,0.1l0,0.1l0,0.1l0,0.1l0,0l0,0.1l0,0.2l0,0.1l0.1,0.1l0,0.1l0.1,0.2l0,0.1l0,0.3l0,0.2l0.1,0l0.2,0l0.2,0l0.3-0.1
		l0.1,0l0.2-0.1l0.1,0l0.2-0.1l0.3-0.2l0.1-0.2l-0.1-0.1L82.8,32l0-0.1l0-0.1l-0.1,0l0,0.1l-0.1,0L82.5,32l-0.1,0l-0.1,0l-0.1-0.1
		l0-0.2l-0.1,0l-0.1-0.2L82,31.4l0-0.1l0.1-0.1l0.1,0l0,0.1l0.1,0.2l0.1,0.1l0.1,0.2l0.1,0l0.1,0l0.1,0l0.1,0.1l0.1,0.1l0.4,0.1
		l0.1,0l0.1,0l0.3,0.1l0.1,0.2l0.1,0.1l0.1,0.1l0,0l0.1,0l0-0.1l0.1,0l0,0.1l-0.1,0.2l0,0.2l0.1,0.2l0,0.1l0,0.2l0.1,0.2l0,0.2
		l0.1,0l0.1-0.1l0.1,0l0.1,0l0-0.3l0-0.2l0.1-0.1l0.1-0.1l0.1-0.2l0.2-0.1l0.1-0.2l0.2-0.1l0.1,0l0.1-0.1l0.1,0.2l0.1,0.2l0.1,0.1
		l0,0.1l0.2,0l0.1,0.3l0,0l0.1-0.1l0.1,0l0.1,0.1l0,0.1l0.1,0.1l0.1-0.3l0.1,0l0,0l0.1-0.4l0-0.1L87,32.4l0-0.1l-0.1-0.1l0-0.2
		l0.1-0.3l0.2-0.1l0.1,0l0.1-0.1l0-0.2l0.1-0.3l0-0.2l0-0.3l0-0.1l-0.3-0.3l0-0.1l-0.1-0.3L87,29.8l0-0.2l0-0.1l0.3,0.2l0.3,0.2
		l0.1-0.1l0-0.1l0,0v0l0,0c-0.1-0.5-0.3-1-0.6-1.4L87.2,28l0,0l-0.1-0.1l0-0.1l0-0.1l0-0.1l0,0l-0.1-0.1l0,0l-0.1-0.1l0,0l-0.1-0.1
		l0,0l-0.1-0.1l0,0L86.5,27l0,0l-0.1-0.1l0-0.1l-0.1-0.1l-0.1-0.1l0,0l-0.1-0.1l0,0L86,26.5l0,0C85.6,26.2,85.3,25.9,84.8,25.8
		L84.8,25.8L84.8,25.8l0-0.1L84.8,25.8L84.8,25.8L84.8,25.8z"/>
	<polygon class="st13" points="79.6,27.3 79.7,27.3 79.8,27.3 79.9,27.2 79.9,27.1 79.8,27.1 79.6,27.2 79.6,27.2 79.5,27.3 	"/>
	<polygon class="st13" points="87.7,32.1 87.7,32.3 87.7,32.6 87.8,32.7 87.8,32.6 87.8,32.5 87.9,32.2 87.8,32.2 87.8,32 
		87.8,31.9 87.7,31.7 87.7,32 	"/>
	<path class="st13" d="M87.4,32.9l-0.1,0.3l-0.1,0.3l-0.1,0l-0.1,0l0,0.1l-0.1,0.1l-0.1,0.1l0,0c0.2-0.1,0.4-0.2,0.5-0.3l0.2-0.6
		L87.4,32.9z"/>
	<polygon class="st13" points="84.9,33.7 84.8,33.7 84.8,33.8 84.8,33.9 84.8,34 84.9,33.9 85,33.8 	"/>
	<polygon class="st13" points="86.6,33.6 86.6,33.6 86.5,33.5 86.5,33.4 86.5,33.4 86.4,33.2 86.4,33.3 86.4,33.5 86.3,33.6 
		86.5,33.7 86.5,33.9 86.6,34 86.7,33.9 86.7,33.8 	"/>
	<polygon class="st13" points="84.1,25.4 84.1,25.4 83.9,25.3 83.7,25.3 83.6,25.3 83,25.1 82.7,25 82.7,25 82.2,25 82.2,25.1 
		81.9,25.3 81.8,25.2 81.7,25.3 81.6,25.2 81.5,25.2 81.5,25.2 81.3,25.3 81.2,25.3 80.9,25.3 80.8,25.3 80.7,25.3 80.6,25.3 
		80.6,25.2 80.7,25.2 80.8,25.2 80.9,25.1 81,25.2 81.1,25.1 81.3,25.1 81.3,25.1 81.4,25.1 81.4,25 81.1,25 81,25 81,25 80.9,25 
		80.8,25 80.5,25.1 80.4,25 80.1,25.2 79.9,25.3 79.6,25.5 79.5,25.5 79.4,25.5 79.3,25.6 79.3,25.6 79.2,25.6 79.3,25.6 79.5,25.6 
		79.6,25.7 80,25.6 79.9,25.8 80,25.8 80.1,25.8 80.2,25.8 80.3,25.8 80.4,25.8 80.9,26 80.9,26 81.3,26 81.5,26 81.6,25.9 
		81.8,25.9 81.9,25.9 82,25.9 82.2,25.9 82.3,25.9 82.4,25.7 82.4,25.6 82.5,25.6 82.9,25.6 83.5,25.6 83.8,25.6 84.2,25.6 
		84.5,25.6 84.7,25.6 84.7,25.6 84.7,25.6 84.6,25.6 84.6,25.5 84.6,25.5 84.4,25.6 	"/>
	<polygon class="st13" points="82.3,26.4 82.4,26.5 82.6,26.4 82.7,26.3 82.5,26.3 82.4,26.3 82.3,26.4 	"/>
	<polygon class="st13" points="83.2,27.2 83.2,27.1 83.3,27.1 83.3,26.9 83.4,26.9 83.5,26.8 83.3,26.8 83.3,26.9 83.1,27.1 
		83.1,27.3 	"/>
	<polygon class="st13" points="86.3,33.9 86.1,33.9 86.2,34.1 86.2,34.1 86.5,34 86.4,33.9 	"/>
	<polygon class="st13" points="80.6,26.4 80.7,26.4 80.7,26.3 80.7,26.2 80.6,26.2 80.5,26.2 80.4,26.4 80.6,26.5 	"/>
	<polygon class="st13" points="79.3,25.6 79.1,25.6 79.1,25.6 79.1,25.6 79.1,25.6 79,25.7 78.9,25.8 78.9,25.9 79,25.9 79,25.8 
		79.1,25.8 79.2,25.7 79.3,25.6 79.2,25.6 	"/>
	<polygon class="st13" points="79.6,28.8 79.6,28.7 79.5,28.7 79.6,28.8 	"/>
	<polygon class="st13" points="79.5,28.9 79.5,28.9 79.5,28.8 79.5,28.8 79.4,28.9 79.3,28.9 79.3,29 79.4,29 	"/>
	<polygon class="st13" points="80.3,30.1 80.3,30 80.3,29.9 80.2,29.9 80.2,30 80.3,30 	"/>
	<polygon class="st13" points="79.5,29.4 79.6,29.5 79.7,29.4 79.7,29.4 79.6,29.3 79.6,29.3 79.5,29.2 79.6,29.3 	"/>
	<path class="st14" d="M79.5,36.4L79.5,36.4c-0.5-0.1-0.7-0.2-1-0.4l-0.4-0.2l0-0.1l-0.2-0.2l-0.1-0.1l-0.1-0.6l-0.1-0.1l-0.1-0.2
		l0-0.1l0-0.1l0.1-0.1l0.1-0.2l0-0.1l-0.1-0.1l0-0.2l0-0.2l-0.1-0.1l0-0.1l-0.1-0.1l0-0.1l0.1-0.1l0.1-0.1l0-0.1l0-0.2l0-0.1
		l-0.2-0.1L77.4,32l0-0.2l-0.1,0l-0.1-0.1l-0.4-0.1l-0.1-0.1l-0.1-0.1l-0.1-0.1l-0.1,0l0-0.2L76.4,31l0-0.2l0-0.1l0-0.4l0-0.2l0-0.1
		l0-0.1l0-0.1l0.1-0.1l0-0.1l0.1-0.1l0-0.1l0.1-0.1l0.1-0.1l0.1-0.1l0.1,0l0.1-0.1l0.1-0.1l0.1-0.1l0.1-0.1l0.1,0l0.1,0l0.1,0
		l0.1-0.1l0.1,0l0.2-0.1l0,0l0.1,0l0.1-0.1l0,0l0,0l0,0.1l0,0.1l0.1,0l0.1,0l0.1,0.1l0.1,0l0,0.1l0.1,0l0.1,0.1l0.2,0l0,0.1
		l-0.1,0.1l0,0.1l-0.1,0.1l0,0.1l0.1,0.1l0.1,0.1l0.1,0.1l0.1,0.1l0.1,0.1l0,0.1l0.2,0.1l0.1-0.1l0.1,0l0.1,0l0.1,0l0.1,0.2l0,0.1
		l0.2,0.1l0.1,0.1l0.1,0l0.1,0l0.1,0.1l0,0.1l0.2,0l0,0l0.1,0l0.2-0.1l0-0.1l0.1-0.1l0-0.2l0-0.1l-0.2,0l-0.1-0.2l-0.1,0L80.7,30
		l-0.1,0l0-0.2l0.1,0l0-0.1l0.1,0l0.1,0l0.1,0l0.2,0l0.1,0l0.1,0l0.2,0l0,0.1l0.1,0.1l0,0.1l0.2,0l0,0l0.1-0.1l0-0.1l0-0.1l0-0.1
		l0-0.1l-0.1,0l0,0l0,0l0.1-0.1l0-0.1l-0.1,0l-0.1,0l-0.1,0.1l-0.2,0.1l0-0.1l-0.1-0.1l0,0l-0.1,0l0,0l-0.1,0.1l-0.1,0l-0.1,0l0,0
		l-0.1,0.1l0,0.1l-0.1,0l-0.1,0l0-0.1l-0.1,0l-0.1,0l0,0l0,0.1l0,0.1l-0.1,0l-0.1,0l0,0l0-0.1l0-0.1l0-0.1l0-0.1l0.1-0.3l0-0.1
		l-0.1-0.1l0-0.1l0-0.1l0-0.1l0-0.1l0-0.1l0,0l-0.1,0l0,0.1l0,0l0,0.1l0,0.1l0,0.1l0,0.1l0,0l0,0l0.1,0l0,0.1L80,29.2l-0.1,0l0,0.1
		l-0.1,0.1l0-0.1l0,0l0.1,0l0-0.1l0-0.1l0-0.1l0,0l0-0.1l0-0.1l-0.1-0.1l0-0.1l0,0l-0.1,0l0,0l-0.1,0l0-0.1l0,0l-0.1,0l-0.1,0l0,0
		l0,0l-0.1-0.1l-0.1,0l-0.1,0l-0.1,0.1l0,0l-0.1,0l-0.1,0l-0.3-0.1l0-0.2l-0.2,0l0.1-0.2l0.1-0.1l0.1-0.1l0-0.1l0.1-0.1l0.1,0l0,0.1
		l0,0.1l0.1,0.1l0.2,0.1l0.1,0l0.2-0.1l0-0.1l0-0.1l0,0l0-0.1l0.1,0l0.1,0l0,0l0.1,0l0.2,0l0.1,0l0,0l0.1,0l0.1,0l0.1,0l0.1,0l0.1,0
		l0.1,0l0.1-0.1l0.1-0.1l0.1-0.1l0.1,0l0,0l0,0l-0.1,0.1l-0.1,0l0,0.1l0.1,0l0,0.1l0,0.1l0.1,0l0.1,0l0.1,0l0,0.1l0.1-0.1l0-0.1
		l0.1,0l0-0.1l0.1,0.1l0.1,0l0-0.1l0,0l0.1,0l0.1,0l0.1,0l0.1-0.1l0-0.1l-0.1,0l-0.2,0l0,0l0-0.2l0.1-0.1l0.1,0l0.1,0l0,0l0-0.1
		l-0.1,0l-0.2,0.1l-0.1,0l-0.1,0l0,0l0,0.1l-0.1,0l-0.1,0.1l0,0l-0.1,0l0,0.1l-0.1,0l-0.2,0l-0.1,0l0-0.1l0.1,0l0-0.1l0.1,0l0-0.1
		l-0.1,0l0,0l-0.2,0l0-0.1l0.1-0.1l0.1-0.1l0.3,0l0.2,0l0.1,0l0.1-0.1l0,0l0.1,0l0.1-0.1l0.1,0l0.1,0l0.3,0.1l0.1,0l0,0l0,0.1
		l0.1,0.1l0,0l0.1,0.1l0.1,0l0,0.1l-0.1,0l-0.1-0.1l-0.1,0l0,0l0,0.1l0,0.1l0.2,0l0.1,0.1l0.1-0.1l0-0.1l0.1,0l0.2,0l0.1-0.1
		l0.2,0.1l0.1,0l0.1,0l0.1-0.1l0.1,0l0,0l0-0.2l0.2,0l0.1-0.1l0.1,0l0.1,0l0.1-0.2l0.2-0.1l0.1-0.1l0.1,0l0.1,0l0.2,0l0-0.1l0.1,0
		l0.1-0.4l0-0.2L84.9,26l0-0.1l-0.1-0.1l0-0.1l0,0l-0.1-0.1l-0.2,0l-0.3,0l-0.4,0l-0.3,0l-0.6,0l-0.4,0l-0.1,0l0.1,0.1l-0.1,0.2
		l-0.1,0l-0.2,0l-0.1,0l-0.1,0l-0.2,0L81.5,26l-0.2,0l-0.4,0.1l-0.1,0l-0.4-0.2l-0.1,0l-0.1,0l-0.2,0l-0.1,0l-0.1,0l0.1-0.1l-0.4,0
		l-0.1,0l-0.2,0l-0.1,0l-0.1,0.1L79,25.8l0,0.1l-0.1,0l0-0.1l0.1,0l0-0.1l-0.1,0h-0.1l-0.1,0c-1.5,0.8-2.6,2.2-3.1,3.9
		c-0.8,3.1,0.8,6.2,3.6,7.4c0.1-0.1,0.2-0.3,0.4-0.4L79.5,36.4 M80.2,29.9L80.2,29.9l0.2,0.1l0,0.1l-0.1,0L80.2,29.9L80.2,29.9z
		 M79.6,29.3L79.6,29.3L79.6,29.3l0,0.2l0,0.1l-0.1-0.1L79.6,29.3L79.6,29.3L79.6,29.3z M79.6,28.7L79.6,28.7l0,0.1L79.6,28.7
		L79.6,28.7z M79.3,28.9L79.3,28.9l0.1-0.1l0.1,0l0,0.1l0,0L79.3,28.9L79.3,28.9L79.3,28.9z M83.3,26.9L83.3,26.9l0.3-0.1l-0.1,0.1
		L83.3,26.9l0,0.2l-0.1,0.1l0,0.1l-0.1,0l0-0.1L83.3,26.9z M82.3,26.4l0.1-0.1l0.1,0l0.1,0l0,0.1l-0.2,0.1L82.3,26.4L82.3,26.4
		 M80.5,26.2L80.5,26.2l0.2,0l0.1,0.1l0,0.1l-0.1,0l-0.1,0l-0.1-0.1L80.5,26.2z M79.9,27.4L79.9,27.4l0.1-0.1l0.1-0.2l0.2-0.1l0,0.1
		l-0.1,0l0,0.1l-0.1,0.1l0,0.1l0,0.1l-0.1,0.1l-0.1,0.1l0-0.1l-0.2,0l-0.1-0.1l0,0l0,0l0.1,0l0.1,0l0.1-0.1L79.9,27.4L79.9,27.4z
		 M79.6,27.2L79.6,27.2l0.2-0.1l0.1,0l0,0.1l-0.1,0l-0.1,0L79.6,27.2L79.6,27.2L79.6,27.2z"/>
	<path class="st14" d="M79.1,25.5L79.1,25.5L79.1,25.5L79.1,25.5L79.1,25.5l0.2,0.1l0,0l0.1-0.1l0.1-0.1l0.1,0l0.2-0.1l0.3-0.2
		l0.3-0.2l0.1,0.1l0.3-0.1l0.1,0l0.1,0l0.1,0l0.1,0l0.3,0l0,0.1l0,0l0,0l-0.2,0l-0.1,0l-0.1,0l-0.2,0l-0.1,0l-0.1,0l0,0.1l0.1,0
		l0.1-0.1l0.2,0l0.3,0l0.1,0l0.2-0.1l0.1,0l0.1,0l0,0.1l0.1-0.1l0.1,0l0.2-0.1l0-0.1l0.5,0l0,0.1l0.3,0l0.6,0.2l0.2,0l0.2,0l0.1,0.1
		l0.1,0l0.3,0.1l0.2,0c-0.4-0.2-0.8-0.3-1.2-0.4c-1.6-0.4-3.2-0.2-4.5,0.5l0.1,0L79.1,25.5z"/>
	<path class="st14" d="M86.6,27.1L86.6,27.1L86.6,27.1z"/>
	<path class="st14" d="M86.5,27L86.5,27L86.5,27z"/>
	<path class="st14" d="M86.7,27.2L86.7,27.2L86.7,27.2z"/>
	<path class="st14" d="M86.4,26.9L86.4,26.9L86.4,26.9z"/>
	<path class="st14" d="M86.2,26.7L86.2,26.7L86.2,26.7z"/>
	<path class="st14" d="M84.8,25.7c0.4,0.2,0.8,0.5,1.2,0.8C85.6,26.2,85.3,25.9,84.8,25.7"/>
	<path class="st14" d="M86.8,27.3L86.8,27.3L86.8,27.3z"/>
	<path class="st14" d="M86,26.5l0.1,0.1L86,26.5z"/>
	<path class="st14" d="M86.1,26.6L86.1,26.6L86.1,26.6z"/>
	<polygon class="st14" points="84.8,25.7 84.8,25.7 84.8,25.7 	"/>
	<path class="st14" d="M84.7,25.6L84.7,25.6L84.7,25.6z"/>
	<polygon class="st14" points="84.6,25.5 84.6,25.5 84.6,25.6 	"/>
	<polygon class="st13" points="79.2,28.5 79.1,28.4 79.1,28.5 79.1,28.5 	"/>
	<polygon class="st14" points="80.3,35.8 80.3,35.8 80.3,35.8 	"/>
	<path class="st14" d="M87.8,29.5L87.8,29.5l-0.1,0.2l-0.1,0.1l-0.3-0.2l-0.3-0.2l0,0.1l0,0.2l0.1,0.1l0.1,0.3l0,0.1l0.3,0.3l0,0.1
		l0,0.3l0,0.2l-0.1,0.3l0,0.2l-0.1,0.1l-0.1,0L87,31.8l-0.1,0.3l0,0.2l0.1,0.1l0,0.1l0.1,0.1l0,0.1L87,33l0,0l-0.1,0l-0.1,0.3
		l-0.1-0.1l0-0.1l-0.1-0.1l-0.1,0l-0.1,0.1l0,0l-0.1-0.3l-0.2,0l0-0.1l-0.1-0.1L86,32.4l-0.1-0.2l-0.1,0.1l-0.1,0l-0.2,0.1l-0.1,0.2
		l-0.2,0.1l-0.1,0.2L85,32.9l-0.1,0.1l0,0.2l0,0.3l-0.1,0l-0.1,0l-0.1,0.1l-0.1,0l0-0.2l-0.1-0.2l0-0.2l0-0.1l-0.1-0.2l0-0.2
		l0.1-0.2l0-0.1l-0.1,0l0,0.1l-0.1,0l0,0l-0.1-0.1l-0.1-0.1L83.8,32L83.5,32l-0.1,0l-0.1,0l-0.4-0.1l-0.1-0.1l-0.1-0.1l-0.1,0
		l-0.1,0l-0.1,0l-0.1-0.2l-0.1-0.1l-0.1-0.2l0-0.1l-0.1,0L82,31.3l0,0.1l0.1,0.2l0.1,0.2l0.1,0l0,0.2l0.1,0.1l0.1,0l0.1,0l0.1-0.1
		l0.1,0l0-0.1l0.1,0l0,0.1l0,0.1l0.1,0.1l0.1,0.1l-0.1,0.2l-0.3,0.2l-0.2,0.1l-0.1,0l-0.2,0.1l-0.1,0l-0.3,0.1l-0.2,0l-0.2,0l-0.1,0
		l0-0.2l0-0.3l0-0.1l-0.1-0.2l0-0.1L81,32l0-0.1l0-0.2l0-0.1l0,0l0-0.1l0-0.1l0-0.1l0-0.1l0-0.1l-0.1,0l0,0l-0.1-0.1l0,0l0,0.1
		l0,0.1l0,0.1l0.1,0.1l-0.1,0.2l0,0.2l0,0.1l0.1,0.1l0,0.3l0.1,0.1l0,0.2l0.1,0.1l0,0.1l0,0.1l0.1,0.1l0.1,0.1l0,0.2l0.1,0.1l0.1,0
		l0.3,0l0.3,0l0,0.1l-0.1,0.2l-0.1,0.1l-0.2,0.2l-0.2,0.1L81.2,34L80.9,34l-0.1,0.1l-0.3,0.2l-0.2,0.1l-0.2,0.1l0,0.2l0,0.2l0,0.3
		l0,0.1c0,0.2,0,0.3,0.1,0.4l0,0.2c0,0.1,0.1,0,0,0.1l0,0c0.7-0.6,1.7-1.1,2.9-1.3c0.1,0,0.2,0,0.3,0l0,0h0c0.7-0.1,1.4-0.2,1.9-0.3
		c0.3-0.1,0.5-0.1,0.8-0.2l0,0l-0.1-0.2l0.1,0l0.2,0l0,0.1l0.1,0l-0.1-0.1l0-0.2l-0.2-0.2l0-0.1l0-0.2l0-0.2l0,0.2l0,0l0.1,0.1
		l0.1,0l0,0.1l0.1,0.2l0,0.1l0.2-0.1l0,0l0.1-0.1l0.1-0.1l0-0.1l0.1,0l0.1,0l0.1-0.3l0.1-0.3l0.1,0l-0.2,0.6
		c0.2-0.1,0.3-0.3,0.3-0.4c0-0.1,0.1-0.3,0.1-0.4C88.1,31.7,88.1,30.6,87.8,29.5 M84.8,34l-0.1-0.1l0-0.1l0.1-0.1l0.1,0l0.1,0.1
		l0,0.2L84.8,34z M87.7,32.6l0-0.2l-0.1-0.2l0-0.1l0-0.3l0.1,0.2l0,0.1l0.1,0.2l0,0L87.7,32.6L87.7,32.6l0.1,0.1L87.7,32.6z"/>
	<path class="st14" d="M87.2,28.1c0.3,0.5,0.4,0.9,0.6,1.4C87.7,29,87.5,28.5,87.2,28.1"/>
	<path class="st14" d="M87.7,33.2L87.7,33.2L87.7,33.2z"/>
	<path class="st14" d="M86.8,27.5L86.8,27.5L86.8,27.5z"/>
	<path class="st14" d="M86.9,27.6L86.9,27.6L86.9,27.6z"/>
	<path class="st14" d="M87,27.7L87,27.7L87,27.7z"/>
	<path class="st14" d="M87.2,28l0.1,0.1L87.2,28z"/>
	<path class="st14" d="M87.1,27.8L87.1,27.8L87.1,27.8z"/>
	<path class="st14" d="M85.3,30.6"/>
	<path class="st14" d="M85.4,30.7"/>
	<path class="st15" d="M83,31.4c-0.5,0.4-2.2,2.1-2.8,3c-0.5,0.7-1.5,2.4-0.9,3c0.3,0.3,0.4-1.2,2.1-3.7C82.2,32.3,83,31.4,83,31.4"
		/>
	<path class="st15" d="M87.9,32.7c0,0-0.6,1.6-4.4,1.9c-3.1,0.2-4.1,2.1-4.3,2.5c0.9,0,1.5-0.2,1.5-0.2s0.4-0.1,0.6-0.3
		c0,0-0.5,0.5-1.1,0.7c-0.2,0.1-0.4,0.1-0.7,0.1c0.5,0.4,1.6,0.9,2.4,0.9C86.8,38.9,88.4,33.6,87.9,32.7"/>
	<path class="st0" d="M88.7,32.5c0,0-1,2.3-4.8,2.4c-3.1,0.1-4,1.8-4.2,2.4c0.9,0,1.1-0.1,1.6-0.2c0.4-0.1,1.4-0.4,1.6-0.5
		c0,0-0.6,0.7-1.8,1.1c0,0-0.8,0.2-1.1,0.2c0.5,0.4,1.6,1,2.4,1.2C87.1,39.7,89.1,33.5,88.7,32.5"/>
	<polygon class="st13" points="78.2,28.3 78.1,28.3 78.1,28.4 78.2,28.4 	"/>
	<polygon class="st14" points="79.3,35.7 79.3,35.7 79.3,35.7 	"/>
	<path class="st14" d="M27.2,26.3L27.2,26.3L27.2,26.3z"/>
</g>
</svg>
