<svg xmlns="http://www.w3.org/2000/svg" xml:space="preserve" width="1420.933" height="594.68" viewBox="0 0 1420.933 594.68"><path fill="#2a5ea7" d="M0 297.352C0 133.125 133.125.002 297.33.002c164.229 0 297.358 133.123 297.358 297.35 0 164.205-133.13 297.328-297.359 297.328C133.125 594.68 0 461.557 0 297.352"/><path fill="#448ed3" d="M2.223 260.93c15.185 30.487 32.062 60.046 47.828 90.42 8.773 16.894 29.897 48.08 25.389 68.437-2.313 10.437-17.358 15.237-16.471 26.493.864 10.924 18.947 20.995 26.32 26.559 13.38 10.086 25.895 21.316 38.307 32.549 16.315 14.767 23.81 31.978 27.785 51.052a295.353 295.353 0 0 0 74.451 29.564c17.43-18.136 34.317-35.912 55.472-50.499 11.505-7.939 24.755-16.268 31.232-29.086 8.623-17.098-1.016-27.47-6.103-42.162-4.566-13.177-9.114-18.216-23.428-26.248-24.172-13.568-52.676-18.494-79.152-25.701-23.99-6.536-48.472-12.799-72.745-18.183-14.08-3.125-33.703-4.341-43.678-15.976-14.756-17.205-25.596-47.466-31.48-68.809-2.728-9.901-13.08-46.233-.135-54.364 6.401-4.021 22.188 3.075 26.46-.104 4.061-3.027 2.023-12.239 2.03-16.923.083-29.982 20.018-46.821 45.503-60.109 21.152-11.025 44.44-17.407 66.945-25.023 8.347-2.818 22.93-5.254 29.656-11.614 15.438-14.602 5.375-56.735 5.283-77.228-.15-30.183-32.763-28.012-56.373-37.859C82.516 67.935 15.038 155.986 2.223 260.929M411.733 68.396c23.41 16.68 67.031 53.148 44.431 84.68-6.427 8.97-19.85 22.843-17.053 35.519 5.528 25.122 34.374 12.808 47.724 6.524 9.742-4.587 21.34-8.011 32.304-6.642 5.697.715 23.713 4.934 26.554 10.568 6.296 12.531-23.68 24.958-30.609 29.903-19.373 13.823-36.61 29.305-47.265 50.832-5.927 11.967-23.844 45.63-16.239 60.163 4.49 8.59 24.644 10.217 32.49 12.652 13.88 4.308 27.994 9.186 41.46 14.658 9.997 4.07 38.37 12.599 43.789 23.123 7.694 14.932-24.779 27.523-33.344 35.548-15.099 14.147-42.146 58.844-30.428 83.668 55.004-53.957 89.141-129.108 89.141-212.24 0-136.937-92.57-252.228-218.537-286.77 2.169 23.442 16.169 43.985 35.582 57.814"/><path fill="#fff" d="M241.259 528.75V169.505l-43.24-.405.358-58.179 56.004-49.881h102.942V528.75H241.259M503.957 216.925h24.219l-104.007 142.47h-24.22l104.008-142.47M405.072 251.013c0-8.14 6.625-14.765 14.765-14.765 8.146 0 14.767 6.625 14.767 14.765 0 8.135-6.621 14.759-14.767 14.759-8.14 0-14.765-6.624-14.765-14.759zm-18.68 0c0 18.439 15.007 33.442 33.445 33.442 18.443 0 33.451-15.003 33.451-33.442 0-18.444-15.008-33.445-33.45-33.445-18.44 0-33.446 15.001-33.446 33.445M492.259 325.888c0-8.143 6.622-14.765 14.764-14.765 8.146 0 14.765 6.622 14.765 14.765 0 8.137-6.619 14.76-14.765 14.76-8.142 0-14.764-6.623-14.764-14.76zm-18.68 0c0 18.443 15.001 33.448 33.444 33.448 18.437 0 33.442-15.005 33.442-33.448 0-18.441-15.005-33.447-33.442-33.447-18.443 0-33.444 15.006-33.444 33.447"/><path fill="#448ed3" d="M650.944 159.476h98.028v29.757h-64.07v20.827h57.935v28.181h-57.936v43.756h-33.957V159.476M858.36 221.09v-.351c0-17.684-12.773-33.084-31.5-33.084-18.559 0-30.979 15.053-30.979 32.729v.355c0 17.676 12.774 33.077 31.326 33.077 18.726 0 31.153-15.053 31.153-32.727zm-97.317 0v-.351c0-35.18 28.36-63.716 66.164-63.716 37.8 0 65.818 28.176 65.818 63.361v.355c0 35.178-28.36 63.708-66.165 63.708-37.813 0-65.817-28.183-65.817-63.358M967.94 218.287c11.55 0 18.199-5.602 18.199-14.53v-.352c0-9.626-7.002-14.528-18.379-14.528h-22.232v29.41zm-56.37-58.811h57.94c18.733 0 31.68 4.899 39.911 13.3 7.174 7.001 10.855 16.457 10.855 28.53v.353c0 18.725-9.981 31.154-25.207 37.63l29.23 42.708h-39.215l-24.679-37.106h-14.877v37.106h-33.957V159.476M1100.964 189.233h-36.763v-29.757h107.476v29.757h-36.756v92.764h-33.957v-92.764M1187.43 159.476h33.957v45.85h43.585v-45.85h33.957v122.521h-33.957v-46.562h-43.585v46.562h-33.956V159.476M1321.503 159.476h98.55v28.876h-64.933v18.555h58.813v26.778h-58.813v19.43h65.813v28.882h-99.43V159.476"/><path fill="#2a5ea7" d="M703.72 371.659c12.937 0 20.813-6.748 20.813-17.066v-.366c0-11.255-7.876-17.258-20.998-17.258h-17.063v34.69zm-53.628-65.251h56.253c33.19 0 54.57 17.059 54.57 46.124v.372c0 30.947-23.815 47.255-56.447 47.255h-17.996v37.501h-36.38V306.408M776.279 306.408h36.385v99.375h63.563v31.877h-99.948V306.408M969.041 385.905l-14.625-37.308-14.82 37.308zm-31.877-80.433h35.07l55.87 132.188h-38.997l-9.568-23.435h-50.626l-9.374 23.435h-38.252l55.877-132.188M1040.855 306.408h33.94l54.009 69.379v-69.379h35.993V437.66h-31.877l-56.065-71.999v71.999h-36V306.408M1188.044 306.408h105.568v30.94h-69.56v19.87h62.99v28.687h-62.99v20.815h70.503v30.94h-106.511V306.408M1345.173 338.279H1305.8v-31.871h115.134v31.87h-39.373v99.382h-36.387v-99.381M1401.8 425.639c1.12 0 1.733-.559 1.733-1.364 0-.866-.613-1.363-1.733-1.363h-2.04v2.727zm-5.267-5.451h5.454c2.786 0 4.773 1.176 4.773 3.84 0 1.795-.933 3.035-2.36 3.592l2.733 3.964h-3.72l-2.293-3.407h-1.36v3.407h-3.227zm14.254 5.885v-.064c0-5.264-4.094-9.598-9.547-9.598-5.387 0-9.533 4.396-9.533 9.662v.06c0 5.263 4.093 9.598 9.533 9.598 5.387 0 9.547-4.395 9.547-9.658zm-21 .064v-.064c0-6.258 5.066-11.525 11.453-11.525 6.467 0 11.467 5.203 11.467 11.457v.068c0 6.254-5.067 11.526-11.467 11.526-6.453 0-11.453-5.204-11.453-11.462"/></svg>